<svg width="50" height="66" viewBox="0 0 50 66" fill="none" xmlns="http://www.w3.org/2000/svg">
<path d="M14.4375 28.875C13.8905 28.875 13.3659 29.0923 12.9791 29.4791C12.5923 29.8659 12.375 30.3905 12.375 30.9375C12.375 31.4845 12.5923 32.0091 12.9791 32.3959C13.3659 32.7827 13.8905 33 14.4375 33H35.0625C35.6095 33 36.1341 32.7827 36.5209 32.3959C36.9077 32.0091 37.125 31.4845 37.125 30.9375C37.125 30.3905 36.9077 29.8659 36.5209 29.4791C36.1341 29.0923 35.6095 28.875 35.0625 28.875H14.4375ZM12.375 39.1875C12.375 38.6405 12.5923 38.1159 12.9791 37.7291C13.3659 37.3423 13.8905 37.125 14.4375 37.125H35.0625C35.6095 37.125 36.1341 37.3423 36.5209 37.7291C36.9077 38.1159 37.125 38.6405 37.125 39.1875C37.125 39.7345 36.9077 40.2591 36.5209 40.6459C36.1341 41.0327 35.6095 41.25 35.0625 41.25H14.4375C13.8905 41.25 13.3659 41.0327 12.9791 40.6459C12.5923 40.2591 12.375 39.7345 12.375 39.1875ZM12.375 47.4375C12.375 46.8905 12.5923 46.3659 12.9791 45.9791C13.3659 45.5923 13.8905 45.375 14.4375 45.375H22.6875C23.2345 45.375 23.7591 45.5923 24.1459 45.9791C24.5327 46.3659 24.75 46.8905 24.75 47.4375C24.75 47.9845 24.5327 48.5091 24.1459 48.8959C23.7591 49.2827 23.2345 49.5 22.6875 49.5H14.4375C13.8905 49.5 13.3659 49.2827 12.9791 48.8959C12.5923 48.5091 12.375 47.9845 12.375 47.4375Z" fill="#9C1F45"/>
<path d="M30.9375 0H8.25C6.06196 0 3.96354 0.869194 2.41637 2.41637C0.869194 3.96354 0 6.06196 0 8.25V57.75C0 59.938 0.869194 62.0365 2.41637 63.5836C3.96354 65.1308 6.06196 66 8.25 66H41.25C43.438 66 45.5365 65.1308 47.0836 63.5836C48.6308 62.0365 49.5 59.938 49.5 57.75V18.5625L30.9375 0ZM30.9375 4.125V12.375C30.9375 14.016 31.5894 15.5898 32.7498 16.7502C33.9102 17.9106 35.484 18.5625 37.125 18.5625H45.375V57.75C45.375 58.844 44.9404 59.8932 44.1668 60.6668C43.3932 61.4404 42.344 61.875 41.25 61.875H8.25C7.15598 61.875 6.10677 61.4404 5.33318 60.6668C4.5596 59.8932 4.125 58.844 4.125 57.75V8.25C4.125 7.15598 4.5596 6.10677 5.33318 5.33318C6.10677 4.5596 7.15598 4.125 8.25 4.125H30.9375Z" fill="#9C1F45"/>
</svg>
