<svg width="66" height="66" viewBox="0 0 66 66" fill="none" xmlns="http://www.w3.org/2000/svg">
<path d="M22.8459 0H0V22.8713H5.07686V5.07686H22.8459V0Z" fill="#9C1F45"/>
<path d="M64.7051 23.1514L41.8592 10.4592C41.4733 10.2364 41.0356 10.1191 40.59 10.1191C40.1444 10.1191 39.7067 10.2364 39.3208 10.4592L16.4749 23.1514C16.0885 23.3804 15.7697 23.7078 15.5512 24.1003C15.3327 24.4927 15.2222 24.9361 15.2311 25.3852V50.7695C15.2344 51.2219 15.3585 51.6651 15.5906 52.0534C15.8226 52.4416 16.1542 52.7608 16.5511 52.978L39.397 65.6701C39.7688 65.881 40.1879 65.9945 40.6154 66.0001C41.0507 65.9934 41.4778 65.8801 41.8592 65.6701L64.7051 52.978C65.0972 52.7576 65.4237 52.4369 65.6512 52.0489C65.8787 51.6608 65.9989 51.2193 65.9997 50.7695V25.3852C66.0035 24.9311 65.8853 24.4843 65.6576 24.0914C65.4299 23.6985 65.101 23.3739 64.7051 23.1514ZM38.077 59.1464L20.3079 49.2719V29.6752L38.077 39.5497V59.1464ZM40.6154 35.1582L22.9987 25.3852L40.6154 15.5869L58.2321 25.3852L40.6154 35.1582ZM60.9229 49.2719L43.1538 59.1464V39.5497L60.9229 29.6752V49.2719Z" fill="#9C1F45"/>
</svg>
