<svg width="70" height="68" viewBox="0 0 70 68" fill="none" xmlns="http://www.w3.org/2000/svg">
<g clip-path="url(#clip0_20_6054)">
<path d="M32.5178 50.7558C35.0319 48.2244 37.5843 45.6545 40.1368 43.0717C40.5451 42.6605 40.928 42.2365 41.3619 41.851C42.9444 40.4504 44.7056 40.5146 46.2243 42.0438C48.7384 44.5623 51.227 47.0936 53.7411 49.6122C55.1067 50.9871 56.4722 52.362 57.8378 53.7369C59.165 55.0732 59.3181 57.0521 57.9781 58.4398C55.8852 60.6242 53.7411 62.7701 51.4695 64.7618C49.6573 66.3423 47.3473 66.9591 44.9736 67.2161C38.9244 67.8714 33.4367 65.9954 28.1532 63.3227C24.5032 61.4723 21.1851 59.1337 18.0839 56.461C13.6427 52.6446 9.82683 48.2758 6.72564 43.303C4.05837 39.0241 2.00367 34.4625 1.09757 29.464C0.433939 25.8147 0.344605 22.1783 1.78672 18.6447C2.3993 17.1413 3.27988 15.8178 4.40294 14.6741C5.98544 13.0551 7.5807 11.4489 9.18872 9.85555C10.7967 8.2622 12.7366 8.3136 14.3446 9.93264C18.1094 13.7361 21.887 17.5139 25.6646 21.3045C26.2644 21.9085 26.8004 22.5638 26.9535 23.4504C27.1577 24.7225 26.6855 25.7376 25.8049 26.6243C23.1377 29.297 20.4832 31.9825 17.8159 34.6552C17.5862 34.8865 17.3309 35.0793 17.1395 35.2463C22.2826 40.4632 27.3747 45.5902 32.5178 50.7558ZM47.743 63.2713C43.8888 59.3907 40.0347 55.4973 36.1167 51.5524C35.7083 51.9893 35.2744 52.4905 34.8022 52.953C33.3346 54.3665 31.4841 54.405 30.1058 53.0173C25.0775 47.9674 20.0492 42.9047 15.0338 37.8419C13.5916 36.3899 13.6172 34.4496 15.0465 33.0105C15.5187 32.5479 15.9909 32.0853 16.3865 31.687C12.4686 27.755 8.5889 23.8359 4.56885 19.7883C4.31361 21.1503 3.94351 22.4481 3.84141 23.7588C3.56065 27.3695 4.36466 30.8261 5.65363 34.167C8.23157 40.8873 12.3282 46.5797 17.4203 51.591C21.0192 55.1375 24.9882 58.1571 29.4804 60.47C33.9854 62.783 38.6819 64.4406 43.8505 64.145C45.2288 64.0679 46.5688 63.8366 47.743 63.2713ZM11.7156 11.9115C10.0055 13.6333 8.28262 15.3552 6.68736 16.9614C10.6946 21.0347 14.7147 25.1208 18.6582 29.1299C20.3555 27.4338 22.0784 25.6991 23.7375 24.0286C19.7557 20.0196 15.7357 15.9719 11.7156 11.9115ZM55.7448 56.1526C55.7192 56.114 55.681 56.0369 55.6171 55.9727C51.763 52.0793 47.8961 48.1987 44.042 44.3053C43.7867 44.0483 43.5953 44.074 43.3528 44.3181C42.7657 44.9349 42.1532 45.526 41.5533 46.1428C40.5324 47.1707 39.5114 48.1858 38.516 49.1881C42.5743 53.2871 46.5944 57.3348 50.5761 61.3567C52.2735 59.6605 53.9836 57.9258 55.7448 56.1526Z" fill="#9C1F45"/>
<path d="M42.5616 68C36.7804 68 31.7394 65.867 27.8725 63.9139C24.4012 62.1535 21.0703 59.8919 17.6756 56.9751C13.1195 53.056 9.25258 48.5843 6.18968 43.6758C3.19059 38.87 1.32733 34.2699 0.472272 29.6055C-0.331739 25.1852 -0.102022 21.6259 1.19971 18.4263C1.83781 16.8715 2.75668 15.4581 3.94356 14.2373C5.46224 12.6825 7.03198 11.102 8.72934 9.41875C10.5926 7.58126 12.9025 7.61981 14.7786 9.5087C17.3055 12.0658 19.8834 14.6485 22.3848 17.1542C23.6227 18.4006 24.8606 19.6342 26.0985 20.8806C26.7622 21.5359 27.3875 22.3069 27.5662 23.3863C27.7831 24.7612 27.3365 26.0076 26.2389 27.1126C25.1414 28.2177 24.0311 29.3356 22.9335 30.4407C21.3766 32.0083 19.8196 33.576 18.2626 35.1436C18.1988 35.2079 18.1478 35.2593 18.0839 35.3107L32.5179 49.8564L39.6901 42.6349C39.8178 42.5064 39.9326 42.3779 40.0602 42.2494C40.341 41.9539 40.6218 41.6584 40.9408 41.3757C42.7786 39.7438 44.9098 39.8337 46.671 41.5941C48.3556 43.2903 50.0657 45.0121 51.7248 46.6826C52.5416 47.5178 53.3711 48.3402 54.1879 49.1754C54.9408 49.9335 55.6938 50.6916 56.4595 51.4626C57.0721 52.0794 57.6847 52.6962 58.2973 53.3129C59.9308 54.9577 59.9946 57.3092 58.4504 58.9154C56.7148 60.7272 54.3921 63.0915 51.8907 65.2759C50.2189 66.7279 48.0493 67.5631 45.0502 67.8844C44.1952 67.9615 43.3656 68 42.5616 68ZM11.7029 9.36735C10.9882 9.36735 10.2863 9.68859 9.62268 10.3439C7.93809 12.0272 6.36835 13.5949 4.84967 15.1497C3.77765 16.2419 2.94812 17.514 2.37382 18.9146C1.16142 21.87 0.957231 25.198 1.72296 29.3613C2.55249 33.8587 4.36471 38.3175 7.27446 42.969C10.2735 47.7619 14.0511 52.1436 18.5051 55.9728C21.8232 58.8254 25.0648 61.0355 28.4468 62.7445C34.764 65.9441 39.8433 67.1262 44.9098 66.5737C47.6409 66.2782 49.5935 65.5458 51.0612 64.2736C53.5242 62.1278 55.8087 59.7891 57.5315 58.003C58.5908 56.898 58.527 55.3432 57.3912 54.1996C56.7786 53.5828 56.166 52.966 55.5534 52.3492C54.8004 51.5911 54.0475 50.833 53.2818 50.062C52.465 49.2268 51.6355 48.4044 50.8187 47.5692C49.1724 45.8987 47.4623 44.1769 45.7777 42.4936C44.4887 41.2086 43.1104 41.1572 41.7831 42.3265C41.5024 42.5707 41.2471 42.8405 40.9791 43.1232C40.8515 43.2517 40.7239 43.3931 40.5963 43.5216L32.5179 51.6553L16.1952 35.2464L16.7184 34.7967C16.7822 34.7453 16.846 34.6939 16.9098 34.6296C17.063 34.5011 17.2161 34.3727 17.3565 34.2442C18.9135 32.6765 20.4705 31.1089 22.0274 29.5412C23.125 28.4361 24.2353 27.3182 25.3328 26.2132C26.1496 25.3908 26.4559 24.5684 26.29 23.6047C26.1751 22.9237 25.7667 22.3968 25.1797 21.8058C23.9417 20.5593 22.7038 19.3258 21.4659 18.0794C18.9645 15.5737 16.3866 12.9909 13.8597 10.4339C13.1833 9.71429 12.4431 9.36735 11.7029 9.36735ZM42.5999 64.8262C38.4267 64.8262 34.228 63.6312 29.1997 61.0484C24.8351 58.8126 20.8406 55.87 16.9864 52.0537C11.4221 46.5669 7.5297 40.7846 5.07938 34.3983C3.56069 30.4278 2.97364 27.0355 3.22888 23.7075C3.30545 22.7695 3.50965 21.8315 3.70108 20.9191C3.79041 20.5079 3.87975 20.0839 3.95632 19.6599L4.18604 18.4649L17.3055 31.6871L16.846 32.1368C16.7312 32.2525 16.6035 32.381 16.4632 32.5095C16.1569 32.8179 15.8251 33.1262 15.506 33.4475C14.3191 34.6425 14.3191 36.1716 15.4932 37.3666C20.4066 42.3265 25.4732 47.4278 30.5653 52.542C31.6883 53.6727 33.156 53.647 34.3684 52.4649C34.6874 52.1565 34.9809 51.8352 35.2745 51.514C35.4021 51.3727 35.5425 51.2185 35.6701 51.09L36.1168 50.6145L48.8406 63.4513L48.0365 63.8496C46.9262 64.3893 45.5735 64.6977 43.9016 64.8005C43.455 64.8133 43.021 64.8262 42.5999 64.8262ZM4.96452 21.0862C4.95176 21.1247 4.95176 21.1633 4.939 21.2018C4.74757 22.1013 4.55614 22.9622 4.49233 23.8103C4.24985 26.9456 4.81138 30.158 6.25349 33.9358C8.64 40.155 12.4303 45.7831 17.867 51.1414C21.6318 54.8549 25.5242 57.7204 29.774 59.9048C35.1086 62.6546 39.4477 63.7597 43.8123 63.5027C44.8971 63.4384 45.8159 63.2842 46.6072 63.0272L36.1295 52.4649C35.8488 52.7733 35.5552 53.0945 35.2362 53.4029C33.5133 55.0605 31.2672 55.0862 29.6464 53.4543C24.5543 48.3402 19.4878 43.2389 14.5744 38.2789C12.9025 36.5956 12.9153 34.2313 14.5871 32.548C14.8807 32.2525 15.1869 31.9441 15.4677 31.6742L4.96452 21.0862ZM50.589 62.2691L37.6227 49.1882L41.1067 45.6931C41.2726 45.5261 41.4385 45.3591 41.6045 45.192C42.0256 44.768 42.4723 44.3311 42.8934 43.8813C42.9828 43.7785 43.2763 43.483 43.6974 43.483C43.6974 43.483 43.6974 43.483 43.7102 43.483C44.1313 43.483 44.3994 43.7657 44.5014 43.8556C47.1432 46.5155 49.785 49.1882 52.4267 51.8481L56.0767 55.5231C56.166 55.613 56.2298 55.7158 56.2681 55.7672L56.2808 55.7801L56.5871 56.2169L56.2043 56.5896L50.589 62.2691ZM39.4349 49.1882L50.589 60.4445L54.8643 56.127L51.5078 52.7476C48.9044 50.1262 46.3009 47.5049 43.6974 44.8836C43.3018 45.2948 42.8934 45.706 42.4978 46.1043C42.3319 46.2714 42.166 46.4384 42.0001 46.6055L39.4349 49.1882ZM18.6582 30.0423L5.79406 16.9615L11.7157 11.0121L24.6437 24.0287L18.6582 30.0423ZM7.59351 16.9615L18.671 28.2177L22.8442 24.0287L11.7157 12.8239L7.59351 16.9615Z" fill="#9C1F45"/>
<path d="M50.6016 0.642578C55.4002 0.822472 59.752 2.13313 63.5168 5.17848C66.5797 7.65845 68.6344 10.8066 69.2087 14.7643C69.8213 19.0046 68.6217 22.7696 65.9034 26.0591C62.9426 29.6184 59.0884 31.5844 54.6472 32.4581C52.5159 32.8822 50.3464 32.9721 48.1896 32.6509C46.9644 32.4581 45.752 32.1626 44.5269 31.957C44.2971 31.9185 43.9781 31.9827 43.8122 32.1369C41.0939 34.5526 37.9161 35.4521 34.3555 35.1052C33.794 35.0538 33.2197 34.951 32.6709 34.8353C31.9562 34.6811 31.5861 34.18 31.4968 33.4861C31.4074 32.8051 31.7265 32.2654 32.3136 31.9442C33.9854 31.0447 35.0829 29.6055 36.0146 27.9993C36.3464 27.4211 36.3081 27.0485 35.8231 26.5088C33.7812 24.273 32.505 21.6645 32.1094 18.6191C31.5734 14.533 32.7092 10.9094 35.2361 7.7741C38.0054 4.31756 41.6682 2.22308 45.969 1.31076C47.4877 0.989517 49.0574 0.861021 50.6016 0.642578ZM37.2652 31.8928C39.2434 31.5972 40.9024 30.7363 42.2297 29.2714C42.8933 28.539 43.5697 28.3077 44.5396 28.6418C47.4494 29.6441 50.4229 29.9525 53.4858 29.4642C57.9015 28.7446 61.6153 26.8429 64.2315 23.1036C66.1841 20.3024 66.7584 17.18 65.814 13.8776C64.7548 10.1641 62.2534 7.63275 58.9225 5.91091C54.9024 3.82927 50.6527 3.43094 46.2753 4.47175C42.7529 5.30698 39.7156 7.02882 37.5077 9.97138C35.0702 13.1966 34.4321 16.7688 35.8231 20.6365C36.4612 22.4098 37.5332 23.9132 38.8988 25.211C39.4858 25.7635 39.7921 26.406 39.5369 27.2155C39.3072 27.9608 39.1157 28.7318 38.7712 29.4256C38.3373 30.2609 37.7757 31.0447 37.2652 31.8928Z" fill="#9C1F45"/>
<path d="M35.7721 35.8246C35.2871 35.8246 34.7894 35.7989 34.2789 35.7475C33.7429 35.6961 33.1942 35.6062 32.5178 35.4649C31.5861 35.2593 30.9736 34.5782 30.8459 33.576C30.7183 32.6379 31.1395 31.8413 31.9945 31.3915C33.6536 30.4921 34.6746 29.0144 35.453 27.678C35.6317 27.3696 35.6572 27.2925 35.3382 26.9456C33.1686 24.5684 31.8541 21.7929 31.4585 18.709C30.9225 14.5586 32.02 10.7423 34.7256 7.37566C37.5077 3.91912 41.247 1.67045 45.8286 0.693878C46.9006 0.462585 47.9982 0.334089 49.0574 0.205593C49.5296 0.141345 50.0273 0.0899471 50.5123 0.0128496L50.5633 0H50.6144C55.9234 0.205593 60.2753 1.73469 63.8997 4.67725C67.2689 7.40136 69.2598 10.768 69.8213 14.6742C70.4466 18.9917 69.2853 22.9622 66.3755 26.4701C63.4913 29.9395 59.6882 32.1111 54.7493 33.0877C52.4649 33.5374 50.2188 33.6145 48.0747 33.2804C47.3728 33.1776 46.6837 33.0363 46.0073 32.8949C45.484 32.7921 44.9353 32.6765 44.3992 32.5865C44.3482 32.5737 44.2461 32.5994 44.1951 32.6251C41.8341 34.7581 38.9881 35.8246 35.7721 35.8246ZM50.6271 1.28496C50.1549 1.34921 49.67 1.41345 49.2106 1.46485C48.1768 1.59335 47.1048 1.72184 46.0838 1.94029C41.7958 2.85261 38.299 4.94709 35.7083 8.17234C33.2324 11.2562 32.2242 14.7385 32.722 18.542C33.0921 21.356 34.2789 23.9002 36.2826 26.0847C36.9462 26.8171 37.0355 27.511 36.5506 28.3333C35.6828 29.8239 34.5342 31.4815 32.5943 32.5223C32.2115 32.7279 32.0583 33.0106 32.1094 33.4089C32.1859 34.0128 32.505 34.1542 32.7858 34.2056C33.4111 34.3341 33.9216 34.424 34.4065 34.4754C37.9289 34.8224 40.8642 33.8972 43.3783 31.6614C43.7229 31.353 44.2716 31.2759 44.629 31.3401C45.1905 31.4301 45.7393 31.5457 46.2753 31.6614C46.9389 31.7899 47.6153 31.9312 48.2789 32.034C50.2698 32.3424 52.3755 32.2782 54.5196 31.8541C59.1522 30.9289 62.7128 28.9116 65.4056 25.6735C68.0729 22.4611 69.1449 18.8375 68.5706 14.8798C68.0601 11.3076 66.2224 8.22373 63.1084 5.70522C59.7137 2.92971 55.6299 1.49055 50.6271 1.28496ZM36.0018 32.7279L36.7292 31.5457C36.8952 31.2887 37.0611 31.0317 37.2142 30.7748C37.5715 30.2094 37.9161 29.6825 38.1969 29.13C38.4521 28.616 38.618 28.0506 38.7967 27.4596C38.835 27.3054 38.886 27.164 38.9243 27.0098C39.0264 26.6629 39.0519 26.226 38.4521 25.6606C36.9462 24.2343 35.8614 22.6153 35.2233 20.842C33.7812 16.833 34.381 13.0423 36.9972 9.57294C39.1796 6.69463 42.2552 4.75435 46.1349 3.84203C50.7803 2.73696 55.1704 3.2381 59.216 5.33258C62.9808 7.27286 65.4056 10.0869 66.4266 13.6977C67.422 17.1799 66.8605 20.4694 64.7548 23.4762C62.2023 27.1255 58.5524 29.2842 53.6007 30.0937C50.5378 30.5949 47.4239 30.3122 44.3482 29.2457C43.659 29.0144 43.2379 29.13 42.7147 29.6954C41.3108 31.2502 39.5114 32.2011 37.3673 32.5223L36.0018 32.7279ZM50.8058 4.5616C49.3637 4.5616 47.9088 4.7415 46.4029 5.08844C42.8168 5.93651 39.9836 7.70975 37.9927 10.3439C35.6572 13.4407 35.1212 16.8201 36.3974 20.3923C36.9717 21.9728 37.9416 23.4248 39.3072 24.7098C40.1495 25.5064 40.4302 26.4059 40.124 27.3696C40.0857 27.511 40.0346 27.6523 39.9963 27.8065C39.8177 28.4361 39.6262 29.0786 39.3199 29.6825C39.1158 30.0937 38.886 30.4921 38.6436 30.8776C39.8432 30.4664 40.8642 29.7853 41.7447 28.8088C42.6126 27.8579 43.557 27.6009 44.7311 27.9992C47.6153 28.9887 50.5123 29.2585 53.371 28.7959C57.9653 28.0506 61.3473 26.059 63.6955 22.7052C65.5588 20.0325 66.0692 17.1156 65.1887 14.0189C64.257 10.7294 62.1002 8.24943 58.6162 6.45049C56.1531 5.20408 53.5369 4.5616 50.8058 4.5616Z" fill="#9C1F45"/>
</g>
<defs>
<clipPath id="clip0_20_6054">
<rect width="70" height="68" fill="white"/>
</clipPath>
</defs>
</svg>
