<svg width="65" height="66" viewBox="0 0 65 66" fill="none" xmlns="http://www.w3.org/2000/svg">
<path d="M31.9964 47.1383C29.1992 47.1383 26.4648 46.3088 24.139 44.7548C21.8132 43.2007 20.0005 40.9919 18.9301 38.4076C17.8596 35.8234 17.5796 32.9797 18.1253 30.2363C18.671 27.4928 20.018 24.9728 21.9959 22.9949C23.9738 21.017 26.4938 19.67 29.2372 19.1243C31.9807 18.5786 34.8243 18.8587 37.4086 19.9291C39.9929 20.9995 42.2017 22.8123 43.7557 25.1381C45.3098 27.4638 46.1392 30.1982 46.1392 32.9954C46.1594 34.8583 45.8074 36.7064 45.1038 38.4314C44.4002 40.1565 43.3592 41.7236 42.0419 43.0409C40.7246 44.3582 39.1574 45.3992 37.4324 46.1028C35.7074 46.8064 33.8593 47.1585 31.9964 47.1383ZM31.9964 23.5668C30.7504 23.5385 29.5117 23.763 28.3549 24.2268C27.1982 24.6906 26.1475 25.384 25.2662 26.2653C24.385 27.1465 23.6915 28.1972 23.2277 29.354C22.7639 30.5107 22.5395 31.7495 22.5678 32.9954C22.5395 34.2413 22.7639 35.4801 23.2277 36.6368C23.6915 37.7936 24.385 38.8443 25.2662 39.7256C26.1475 40.6068 27.1982 41.3002 28.3549 41.764C29.5117 42.2278 30.7504 42.4523 31.9964 42.424C33.2423 42.4523 34.4811 42.2278 35.6378 41.764C36.7946 41.3002 37.8453 40.6068 38.7265 39.7256C39.6078 38.8443 40.3012 37.7936 40.765 36.6368C41.2288 35.4801 41.4533 34.2413 41.4249 32.9954C41.4533 31.7495 41.2288 30.5107 40.765 29.354C40.3012 28.1972 39.6078 27.1465 38.7265 26.2653C37.8453 25.384 36.7946 24.6906 35.6378 24.2268C34.4811 23.763 33.2423 23.5385 31.9964 23.5668Z" fill="#9C1F45"/>
<path d="M63.3539 21.318L57.7911 11.682C57.2465 10.7372 56.391 10.0107 55.3705 9.62636C54.35 9.24206 53.2277 9.2238 52.1952 9.57471L46.4579 11.5146C45.4692 10.849 44.4359 10.252 43.3654 9.72793L42.1797 3.79029C41.966 2.72119 41.3884 1.7592 40.5452 1.06811C39.702 0.377029 38.6453 -0.000431464 37.555 3.70118e-07H26.4293C25.3391 -0.000431464 24.2824 0.377029 23.4391 1.06811C22.5959 1.7592 22.0183 2.72119 21.8046 3.79029L20.6189 9.72793C19.5364 10.2462 18.4912 10.8393 17.491 11.5029L11.7867 9.57471C10.7549 9.22503 9.63369 9.24392 8.61419 9.62816C7.59469 10.0124 6.73995 10.7382 6.19559 11.682L0.632729 21.318C0.0877836 22.2615 -0.113495 23.3647 0.0631262 24.4399C0.239747 25.5151 0.783362 26.4959 1.60151 27.2156L6.15316 31.2156C6.11309 31.8096 6.06359 32.3989 6.06359 33C6.06359 33.6081 6.08716 34.2092 6.12959 34.8056L1.60387 38.7844C0.784956 39.5035 0.240437 40.484 0.0629514 41.5592C-0.114534 42.6344 0.0859765 43.7379 0.630371 44.682L6.19323 54.318C6.73741 55.2632 7.59279 55.9902 8.61334 56.375C9.63389 56.7597 10.7563 56.7784 11.7891 56.4276L17.5264 54.4854C18.5148 55.1523 19.5481 55.7501 20.6189 56.2744L21.8046 62.2097C22.0183 63.2788 22.5959 64.2408 23.4391 64.9319C24.2824 65.623 25.3391 66.0004 26.4293 66H36.7064V61.2857H26.4293L24.7557 52.9179C22.4406 52.0578 20.2915 50.8043 18.4032 49.2124L10.2782 51.9609L4.7153 42.3249L11.1385 36.6795C10.6991 34.2419 10.6935 31.7459 11.122 29.3064L4.7153 23.6751L10.2782 14.0391L18.3561 16.7734C20.2578 15.1794 22.4237 13.9301 24.7557 13.0821L26.4293 4.71429H37.555L39.2286 13.0821C41.5437 13.9423 43.6927 15.1959 45.5811 16.7876L53.7062 14.0391L59.269 23.6751L52.6737 29.4549L55.7804 33L62.3804 27.2156C63.1994 26.4966 63.7439 25.516 63.9214 24.4408C64.0988 23.3656 63.8983 22.2621 63.3539 21.318Z" fill="#9C1F45"/>
<path d="M48.4872 56.9938L42.3822 50.8888L39.0586 54.2124L48.4872 63.641L64.9872 47.141L61.6636 43.8174L48.4872 56.9938Z" fill="#9C1F45"/>
</svg>
