<svg width="66" height="52" viewBox="0 0 66 52" fill="none" xmlns="http://www.w3.org/2000/svg">
<path d="M4.71484 23.5718H33.0012V28.2862H4.71484V23.5718Z" fill="#9C1F45"/>
<path d="M0 11.7861H23.572V16.5005H0V11.7861Z" fill="#9C1F45"/>
<path d="M65.8097 25.0004L58.7382 8.50005C58.5567 8.07594 58.2546 7.71448 57.8695 7.46053C57.4844 7.20658 57.0332 7.07134 56.5719 7.07159H49.5003V2.3572C49.5003 1.73203 49.252 1.13247 48.8099 0.690407C48.3678 0.248347 47.7683 0 47.1431 0H9.42796V4.71439H44.7859V34.3114C43.7118 34.9351 42.7718 35.7652 42.0201 36.754C41.2684 37.7428 40.7199 38.8706 40.4062 40.0723H25.5936C25.0199 37.8503 23.6555 35.9138 21.7561 34.6258C19.8567 33.3378 17.5528 32.7867 15.2762 33.0759C12.9996 33.3651 10.9066 34.4746 9.38949 36.1966C7.87242 37.9185 7.03545 40.1346 7.03545 42.4295C7.03545 44.7244 7.87242 46.9406 9.38949 48.6625C10.9066 50.3845 12.9996 51.494 15.2762 51.7832C17.5528 52.0723 19.8567 51.5213 21.7561 50.2333C23.6555 48.9453 25.0199 47.0088 25.5936 44.7867H40.4062C40.919 46.8098 42.0917 48.6041 43.7388 49.8858C45.3859 51.1674 47.4133 51.8633 49.5003 51.8633C51.5873 51.8633 53.6147 51.1674 55.2618 49.8858C56.9089 48.6041 58.0816 46.8098 58.5944 44.7867H63.6435C64.2687 44.7867 64.8682 44.5384 65.3103 44.0963C65.7523 43.6543 66.0007 43.0547 66.0007 42.4295V25.9292C66.0008 25.6098 65.9358 25.2938 65.8097 25.0004ZM16.4996 47.1439C15.5671 47.1439 14.6557 46.8674 13.8804 46.3494C13.1051 45.8314 12.5008 45.0951 12.144 44.2337C11.7872 43.3722 11.6938 42.4243 11.8757 41.5098C12.0576 40.5953 12.5067 39.7553 13.166 39.096C13.8253 38.4366 14.6653 37.9876 15.5798 37.8057C16.4943 37.6238 17.4422 37.7172 18.3037 38.074C19.1651 38.4308 19.9014 39.0351 20.4194 39.8104C20.9374 40.5856 21.2139 41.4971 21.2139 42.4295C21.2127 43.6795 20.7156 44.8779 19.8318 45.7617C18.9479 46.6456 17.7495 47.1427 16.4996 47.1439ZM49.5003 11.786H55.0161L60.07 23.572H49.5003V11.786ZM49.5003 47.1439C48.5679 47.1439 47.6564 46.8674 46.8811 46.3494C46.1059 45.8314 45.5016 45.0951 45.1448 44.2337C44.788 43.3722 44.6946 42.4243 44.8765 41.5098C45.0584 40.5953 45.5074 39.7553 46.1667 39.096C46.826 38.4366 47.6661 37.9876 48.5806 37.8057C49.4951 37.6238 50.443 37.7172 51.3044 38.074C52.1659 38.4308 52.9021 39.0351 53.4202 39.8104C53.9382 40.5856 54.2147 41.4971 54.2147 42.4295C54.2135 43.6795 53.7164 44.8779 52.8325 45.7617C51.9487 46.6456 50.7503 47.1427 49.5003 47.1439ZM61.2863 40.0723H58.5944C58.0751 38.0532 56.9006 36.2635 55.2548 34.9838C53.609 33.704 51.5851 33.0066 49.5003 33.0008V28.2864H61.2863V40.0723Z" fill="#9C1F45"/>
</svg>
