<svg width="48" height="42" viewBox="0 0 48 42" fill="none" xmlns="http://www.w3.org/2000/svg">
<g clip-path="url(#clip0_20_6009)">
<path d="M28.0844 41.1429C27.5609 40.9315 26.9741 40.8057 26.5254 40.4972C24.8974 39.3657 23.3097 38.1772 21.7047 37.0057C21.2963 36.7086 20.8936 36.4057 20.4851 36.1086C20.0249 36.5829 19.5935 37.0572 19.1333 37.4972C18.512 38.0857 17.5398 38.2515 16.7632 37.8686C15.929 37.4572 15.4516 36.7886 15.4286 35.84C15.4171 35.4343 15.6126 35.1029 15.8658 34.8115C16.8782 33.6457 17.9022 32.4857 18.9147 31.32C19.2483 30.9372 19.559 30.5429 19.8869 30.1543C20.4736 29.4572 21.233 29.2343 22.1016 29.4515C22.9703 29.6686 23.4592 30.28 23.6606 31.1315C23.8504 31.9315 23.5513 32.5829 23.0336 33.1657C22.5733 33.6857 22.1016 34.2 21.6069 34.7486C21.9808 35.0457 22.326 35.3543 22.6999 35.6229C24.3049 36.7829 25.9271 37.9315 27.5321 39.0915C28.0383 39.4572 28.5503 39.4972 29.1198 39.2572C29.7929 38.9772 30.4027 38.6229 30.8169 38C30.8974 37.88 30.9607 37.7543 31.0182 37.6229C31.2771 37.0057 31.2368 36.8229 30.7191 36.4057C28.8955 34.9429 27.0662 33.4857 25.2368 32.0229C24.8859 31.7429 24.581 31.4457 24.6328 30.9315C24.6788 30.4515 25.0355 30.1886 25.5072 30.3086C26.255 30.5029 26.8245 30.9772 27.3998 31.4515C28.8437 32.64 30.2934 33.8229 31.743 35.0057C32.5772 35.68 33.5666 35.7029 34.3375 35.0572C34.8437 34.6343 34.999 34.04 35.1141 33.4229C35.2809 32.5372 34.9127 31.9257 34.2224 31.4C32.5369 30.1143 30.8801 28.8 29.2234 27.4743C28.9933 27.2915 28.7977 27.0343 28.6711 26.7715C28.5158 26.44 28.6539 26.0172 28.8782 25.8629C29.1429 25.68 29.7526 25.68 30 25.8743C31.4727 27.0457 32.9396 28.2172 34.4065 29.3886C34.9012 29.7829 35.3845 30.1829 35.9022 30.5372C36.4372 30.9086 36.7363 30.8686 37.1908 30.4115C37.9329 29.6686 38.4736 28.8172 38.5829 27.7429C38.629 27.32 38.5139 26.9715 38.1917 26.6972C37.116 25.7829 36.0288 24.88 34.953 23.9658C34.3202 23.4286 33.7047 22.8743 33.0892 22.3143C32.9511 22.1886 32.8418 22.0229 32.7555 21.8572C32.5772 21.5143 32.7152 21.1372 33.0662 20.9772C33.4573 20.7943 33.8543 20.7829 34.1994 21.0572C34.7804 21.5086 35.3499 21.9715 35.908 22.4515C36.9952 23.3829 38.0709 24.3315 39.1582 25.2629C39.6874 25.72 40.1592 25.7486 40.7517 25.3829C41.2752 25.0629 41.7871 24.7372 42.1496 24.2229C42.6961 23.4458 42.6558 22.6172 41.9712 21.96C41.3672 21.3772 40.7229 20.8343 40.0901 20.2858C38.8993 19.24 37.7028 18.2 36.5062 17.16C35.419 16.2115 34.326 15.2686 33.2387 14.3258C32.278 13.4972 31.2943 12.6915 30.3624 11.8286C29.8792 11.3829 29.3672 11.2972 28.7574 11.3943C27.2617 11.6286 25.7545 11.8229 24.2646 12.0858C23.7296 12.1829 23.2061 12.4 22.7057 12.6172C21.0259 13.3372 19.5014 13.0629 18.0863 11.9772C17.3442 11.4058 17.2522 10.5658 17.9137 9.91433C18.4545 9.3829 19.07 8.92004 19.6568 8.42861C19.9904 8.1429 20.3241 7.8629 20.6635 7.57719C21.4401 6.92004 22.3547 6.60576 23.3499 6.47433C24.5983 6.30862 25.8523 6.16576 27.1007 6.00576C27.1985 5.99433 27.2963 5.95433 27.4056 5.8629C27.348 5.83433 27.2963 5.79433 27.233 5.78862C25.7948 5.64576 24.3624 5.4229 22.9127 5.50862C21.6644 5.5829 20.4161 5.68576 19.1735 5.83433C17.8504 5.99433 16.5331 6.22862 15.21 6.41147C14.2838 6.53719 13.5935 6.96576 13.139 7.79433C11.419 10.9086 9.68743 14.0229 7.93863 17.12C7.66251 17.6115 7.7488 18.0686 7.84659 18.5429C7.99616 19.2629 8.16298 19.9829 8.33556 20.7486C8.56567 20.5829 8.77852 20.4286 8.98561 20.2743C9.77948 19.6915 10.6366 19.4572 11.5916 19.8343C12.7478 20.2915 13.5992 21.9543 12.2991 23.28C10.884 24.7258 9.52061 26.2286 8.13422 27.6972C7.53595 28.3315 6.79961 28.5143 5.96548 28.3143C5.11409 28.1086 4.55033 27.5829 4.35474 26.7258C4.20517 26.0743 4.36049 25.4458 4.72866 24.9086C5.14285 24.3086 5.62032 23.7486 6.06903 23.1715C6.08053 23.1543 6.09779 23.1429 6.10929 23.1315C7.01246 22.0629 6.93767 22.2343 6.6788 21.0572C6.58101 20.6115 6.47746 20.1715 6.32789 19.7429C6.27612 19.5886 6.1208 19.3886 5.97123 19.3486C4.46404 18.9258 3.22147 18.0058 1.89836 17.24C1.49568 17.0058 1.08149 16.7943 0.661546 16.5943C0.0114984 16.28 -0.166833 15.9429 0.143809 15.2915C0.937673 13.6 1.73729 11.9086 2.60018 10.2515C3.83125 7.89147 5.20038 5.61719 6.69606 3.41719C7.09875 2.8229 7.57622 2.26862 8.07094 1.7429C8.6347 1.13719 9.19271 1.09719 9.85426 1.59433C10.6079 2.16576 11.3269 2.77719 12.0518 3.3829C12.4545 3.72005 12.8341 4.08004 13.2253 4.42862C13.6683 4.8229 14.1802 4.89719 14.7498 4.79433C16.1649 4.54862 17.5858 4.29719 19.0067 4.07433C20.721 3.81147 22.4525 3.7029 24.1841 3.7429C25.8811 3.7829 27.5551 3.9829 29.1371 4.65719C29.557 4.84004 29.977 5.03433 30.3567 5.28576C31.047 5.74862 31.5532 5.54862 32.0019 4.99433C32.9223 3.8629 33.8197 2.72005 34.7344 1.5829C35.0393 1.20576 35.3499 0.828618 35.6663 0.462903C36.1438 -0.0913821 36.5695 -0.137096 37.1275 0.331475C38.3471 1.36005 39.5551 2.40005 40.7632 3.43433C41.954 4.45147 43.1448 5.46862 44.3298 6.49147C45.4286 7.44004 46.5388 8.37719 47.6261 9.33718C48.1093 9.76576 48.1208 10.16 47.6778 10.64C46.8034 11.5943 45.9406 12.5715 45.0201 13.4858C44.3701 14.1372 44.0364 14.88 43.8926 15.7772C43.651 17.28 43.1448 18.6172 42.1208 19.8915C42.4314 20.1372 42.7248 20.4115 43.0585 20.6229C44.0825 21.2686 44.3988 22.2229 44.2378 23.3486C44.0767 24.4686 43.6222 25.4572 42.7421 26.2172C42.2013 26.6915 41.5685 27.0058 40.8782 27.1829C40.4755 27.2858 40.326 27.52 40.2685 27.8972C40.0901 29.0458 39.745 30.1257 38.9971 31.0457C38.5542 31.5829 38.0249 32.0172 37.3979 32.3143C37.047 32.48 36.9204 32.7486 36.8801 33.0972C36.7881 33.92 36.65 34.7315 36.2071 35.4515C35.5628 36.5086 34.6539 37.1657 33.3883 37.2457C32.9971 37.2686 32.7958 37.4686 32.698 37.8115C32.3011 39.2 31.3864 40.1486 30.1035 40.7543C29.7239 40.9315 29.2982 41.0172 28.8897 41.1429C28.6251 41.1429 28.3547 41.1429 28.0844 41.1429ZM9.15819 3.04005C6.27612 6.8629 4.10162 11.0458 1.99041 15.2858C3.26749 16.0229 4.51581 16.7486 5.77564 17.4743C5.82166 17.3943 5.85042 17.3429 5.87919 17.2972C7.91562 13.6458 9.95205 9.99433 11.9885 6.3429C12.1726 6.01147 12.1496 5.79433 11.8677 5.53147C11.4592 5.14862 11.0336 4.77719 10.6194 4.40004C10.1419 3.95433 9.67018 3.50862 9.15819 3.04005ZM45.8658 10.0458C45.5206 9.76004 45.1985 9.5029 44.8936 9.23433C42.8917 7.49719 40.8955 5.74862 38.8821 4.0229C38.255 3.48005 37.5935 2.97719 36.9377 2.46862C36.6155 2.21719 36.4545 2.24576 36.1956 2.54862C35.9655 2.81719 35.7354 3.08005 35.5053 3.34862C34.9243 4.04004 34.3432 4.73147 33.745 5.44576C36.8514 8.00004 39.9463 10.5429 43.047 13.0915C43.9904 12.0629 44.9223 11.0572 45.8658 10.0458Z" fill="#9C1F45"/>
<path d="M18.023 26.3998C19.0643 26.3426 19.9847 27.0341 20.1688 27.9884C20.2723 28.5312 20.1688 29.0341 19.8121 29.4569C19.1218 30.2855 18.42 31.1026 17.7181 31.9198C16.8265 32.9598 15.9291 33.9998 15.0259 35.0398C14.5657 35.5712 14.0537 36.0112 13.3059 36.1255C12.1841 36.3026 10.8495 35.1769 10.9185 33.8512C10.9473 33.2969 11.1256 32.8112 11.488 32.3941C12.7018 31.0055 13.9214 29.6284 15.141 28.2512C15.4574 27.8912 15.768 27.5312 16.1016 27.1884C16.6884 26.6055 17.1947 26.4055 18.023 26.3998Z" fill="#9C1F45"/>
<path d="M7.59921 30.3944C7.5877 29.8858 7.74878 29.423 8.04216 29.0344C8.73248 28.1144 9.44005 27.2058 10.1936 26.3372C10.9875 25.423 11.8331 24.5544 12.6788 23.6858C13.6682 22.6744 15.8082 22.6915 16.3662 24.6458C16.5446 25.263 16.4353 25.8401 15.9923 26.343C14.5772 27.9315 13.1678 29.5258 11.7584 31.1144C11.4765 31.4344 11.1716 31.743 10.907 32.0801C10.6539 32.4001 10.3145 32.6058 9.95204 32.663C9.64715 32.7144 9.28473 32.6287 8.9971 32.4973C8.09969 32.0915 7.62797 31.383 7.59921 30.3944Z" fill="#9C1F45"/>
</g>
<defs>
<clipPath id="clip0_20_6009">
<rect width="48" height="41.1429" fill="white"/>
</clipPath>
</defs>
</svg>
