<svg width="48" height="46" viewBox="0 0 48 46" fill="none" xmlns="http://www.w3.org/2000/svg">
<g clip-path="url(#clip0_20_6016)">
<path d="M25.4393 40.1073C27.7622 35.5365 29.6105 30.8033 30.7532 25.7641C31.2028 25.8765 31.6274 25.9702 32.0396 26.0888C33.8192 26.5884 35.5239 27.2565 37.0038 28.4054C38.4712 29.5419 39.3392 30.9719 39.3267 32.8951C39.2954 36.0922 39.2954 39.2831 39.3267 42.4801C39.3454 44.3534 37.9529 45.7334 36.0734 45.7272C27.9995 45.7085 19.9193 45.7209 11.8454 45.7209C10.2594 45.7209 9.01678 44.7468 8.72329 43.2544C8.67958 43.0421 8.67958 42.8173 8.67958 42.605C8.67958 39.308 8.68583 36.0048 8.67334 32.7078C8.66709 31.3715 9.14791 30.2413 10.0346 29.2672C11.1086 28.087 12.4636 27.3314 13.931 26.7757C14.9863 26.376 16.0728 26.0701 17.2031 25.7017C18.377 30.8595 20.269 35.6676 22.6106 40.3821C22.6544 39.8888 22.6918 39.4641 22.7293 39.0333C22.9041 36.9352 23.0727 34.8309 23.2413 32.7328C23.2975 32.0834 23.3849 31.4277 23.4099 30.7783C23.4224 30.516 23.3412 30.2225 23.2288 29.979C23.004 29.4982 22.7293 29.0486 22.4733 28.5803C22.2485 28.1682 22.3671 27.9683 22.8229 27.9683C23.6347 27.9683 24.4465 27.9683 25.2582 27.9683C25.7203 27.9683 25.8202 28.1557 25.6079 28.5491C25.3269 29.0611 25.0584 29.5731 24.7774 30.0789C24.5776 30.4349 24.6525 30.8095 24.6838 31.1779C24.9085 33.8817 25.1333 36.5793 25.3644 39.2831C25.3894 39.5516 25.4143 39.8263 25.4393 40.1073Z" fill="#9C1F45"/>
<path d="M32.2269 7.96171C32.1832 9.81627 32.1957 11.4523 32.0958 13.082C31.9834 14.8929 31.3589 16.5601 30.4785 18.1399C29.879 19.2077 29.1547 20.1756 28.2493 21.0123C27.2252 21.9552 26.0825 22.6795 24.665 22.8856C23.3787 23.0729 22.211 22.7233 21.137 22.0551C19.4323 20.9936 18.2271 19.4762 17.3155 17.7153C16.3164 15.7858 15.8043 13.7377 15.8543 11.5459C15.8855 10.2596 15.8106 8.96704 15.8168 7.68072C15.8231 6.47556 15.8793 5.27666 16.1977 4.09648C16.691 2.31685 17.84 1.18039 19.5634 0.593426C20.7936 0.175057 22.0736 0.0376821 23.3662 0.00646053C24.8961 -0.0310053 26.4197 0.0314378 27.9058 0.418585C29.2733 0.774511 30.4535 1.43016 31.2216 2.67278C31.8273 3.65314 32.0396 4.75214 32.127 5.88236C32.1894 6.65041 32.2019 7.41846 32.2269 7.96171ZM30.3161 8.736C30.3411 8.72976 30.3723 8.72976 30.3973 8.72352C30.3661 8.24895 30.3598 7.76814 30.3036 7.29981C30.1788 6.30697 29.5418 5.38281 28.2305 5.63258C27.6623 5.74498 27.0941 5.86362 26.5383 6.03846C24.946 6.53801 23.3662 6.60045 21.7614 6.10715C21.0808 5.90109 20.3752 5.73874 19.6758 5.61385C18.8703 5.46399 18.1647 5.87611 17.8962 6.63792C17.7713 6.98135 17.6839 7.36226 17.6901 7.73067C17.6964 9.10442 17.4778 10.4345 17.0907 11.752C17.0095 12.033 16.9908 12.3515 17.0157 12.6449C17.1594 14.3059 17.6152 15.8795 18.4207 17.3469C19.2325 18.8393 20.2565 20.1381 21.7052 21.0623C22.4608 21.5431 23.2913 21.8428 24.203 21.7866C25.4518 21.7117 26.4572 21.106 27.3438 20.2942C29.0548 18.7269 30.1226 16.7724 30.7095 14.5432C31.0342 13.2881 31.1466 12.0517 30.7158 10.7779C30.491 10.1222 30.441 9.41663 30.3161 8.736Z" fill="#9C1F45"/>
<path d="M40.7254 37.9092C40.7254 37.7656 40.7254 37.6532 40.7254 37.5408C40.7254 35.9797 40.7067 34.4186 40.7316 32.8576C40.7629 30.6721 39.8512 28.9486 38.2214 27.5624C37.1474 26.6445 35.9173 25.9763 34.606 25.4705C34.5685 25.458 34.5373 25.4331 34.4374 25.3769C34.6559 25.3269 34.812 25.2894 34.9744 25.2582C35.1492 25.227 35.3241 25.2083 35.4989 25.1833C37.7281 24.921 39.9511 24.9335 42.1553 25.3706C43.7851 25.6891 45.3587 26.1636 46.6762 27.2439C47.5567 27.962 48.0187 28.8799 48.0062 30.0351C47.9813 32.127 47.9875 34.2126 47.975 36.3044C47.9688 37.1349 47.3131 37.8843 46.4889 37.8967C44.5844 37.928 42.6799 37.9092 40.7254 37.9092Z" fill="#9C1F45"/>
<path d="M7.25588 37.9152C6.81254 37.9152 6.4129 37.9152 6.00702 37.9152C4.57083 37.9152 3.13464 37.9152 1.69845 37.9152C0.718093 37.9152 0.0187301 37.2471 0.0124858 36.2667C-2.78465e-06 34.0812 -0.0124914 31.902 0.00624152 29.7165C0.0187301 28.5113 0.693115 27.6621 1.63601 26.9939C2.80994 26.1635 4.15246 25.7388 5.5387 25.4329C7.12475 25.0832 8.74203 24.977 10.3593 25.0332C11.4146 25.0707 12.4636 25.2081 13.5127 25.3017C13.5127 25.3267 13.5064 25.3579 13.5064 25.3829C12.9882 25.6264 12.4636 25.8575 11.9578 26.1197C10.4717 26.894 9.15415 27.8619 8.23624 29.2981C7.59932 30.2909 7.25588 31.3774 7.24964 32.5576C7.24339 34.1999 7.24964 35.8421 7.24964 37.4906C7.25588 37.6155 7.25588 37.7404 7.25588 37.9152Z" fill="#9C1F45"/>
<path d="M4.53337 16.0793C4.53337 14.9616 4.47717 13.8438 4.54586 12.7323C4.6645 10.7779 5.60739 9.67263 7.53064 9.24177C9.1604 8.8796 10.7652 8.91082 12.37 9.33543C14.1246 9.80376 14.7865 10.8778 14.9863 12.4389C15.2049 14.206 15.1799 15.9981 14.9738 17.759C14.7178 19.932 13.725 21.7803 11.9391 23.1041C10.3031 24.3155 8.69832 24.0907 7.15598 22.7357C5.50124 21.2933 4.3398 18.8393 4.53337 16.0793ZM9.49135 12.5013C8.46728 12.6012 7.53688 12.6574 6.61272 12.7823C5.96956 12.8697 5.7635 13.1382 5.68857 13.7939C5.67608 13.9188 5.66359 14.0436 5.66359 14.1685C5.67608 14.8866 5.58241 15.5922 5.37635 16.2853C5.30766 16.5101 5.22024 16.7537 5.23273 16.9785C5.36386 19.0828 6.15689 20.8811 7.76168 22.2799C9.05425 23.4101 10.403 23.4226 11.7268 22.3236C12.9819 21.2933 13.7375 19.9383 14.1059 18.3709C14.2308 17.8402 14.3432 17.2657 14.2558 16.7474C14.0934 15.8045 13.8624 14.8866 13.8561 13.9188C13.8561 13.1569 13.5626 12.826 12.8133 12.7511C11.6831 12.6324 10.5404 12.5762 9.49135 12.5013Z" fill="#9C1F45"/>
<path d="M43.6103 15.3861C43.5166 16.5475 43.604 17.7152 43.2543 18.8517C42.7236 20.5938 41.8556 22.1174 40.3258 23.1727C38.8521 24.1905 37.3347 24.1905 35.7861 22.8605C33.9316 21.2682 33.0262 19.1888 32.9824 16.7473C32.9575 15.5609 32.9575 14.3807 32.9824 13.1943C33.0012 12.3701 33.1261 11.5583 33.5569 10.8277C34.0315 10.0222 34.7683 9.57262 35.655 9.33534C37.4097 8.86077 39.1643 8.86077 40.9127 9.34782C42.4301 9.76619 43.3355 10.8589 43.4604 12.4388C43.5353 13.4129 43.5666 14.3995 43.6103 15.3861ZM38.2901 23.129C38.952 23.1103 39.5577 22.848 40.0947 22.4359C41.406 21.4118 42.1866 20.0318 42.5924 18.4458C42.7298 17.9213 42.8734 17.3343 42.7673 16.8223C42.5675 15.8044 42.3739 14.7929 42.3364 13.7438C42.3115 13.1194 42.018 12.8446 41.3998 12.751C41.0126 12.6948 40.6192 12.6386 40.2259 12.6136C38.5461 12.5012 36.8664 12.5012 35.1929 12.7572C34.4748 12.8696 34.3375 12.9508 34.1751 13.8562C34.1501 13.9873 34.1751 14.1247 34.1564 14.2621C34.0877 14.8366 34.0128 15.411 33.9378 15.9855C33.8754 16.4351 33.7318 16.8909 33.763 17.328C33.9129 19.1764 34.6809 20.7624 36.0047 22.0612C36.6229 22.6794 37.3472 23.1165 38.2901 23.129Z" fill="#9C1F45"/>
</g>
<defs>
<clipPath id="clip0_20_6016">
<rect width="48" height="45.7208" fill="white"/>
</clipPath>
</defs>
</svg>
