<svg width="48" height="48" viewBox="0 0 48 48" fill="none" xmlns="http://www.w3.org/2000/svg">
<g clip-path="url(#clip0_20_6013)">
<path d="M3.00261 34.9209C3.08619 34.515 3.21154 33.9061 3.34287 33.2972C3.61149 32.0257 3.89205 30.7602 4.14874 29.4887C4.16665 29.3872 4.13083 29.238 4.06517 29.1604C2.87726 27.8352 1.68934 26.51 0.495463 25.1907C-0.149233 24.4804 -0.17908 23.5312 0.459646 22.8149C1.57593 21.5613 2.70414 20.3197 3.8443 19.09C4.10098 18.8154 4.19053 18.5766 4.09501 18.1827C3.707 16.547 3.36675 14.8995 3.02052 13.2519C2.8295 12.3446 3.30705 11.5029 4.19649 11.2164C5.83211 10.6791 7.4737 10.1538 9.11529 9.64044C9.40182 9.5509 9.54508 9.40764 9.63462 9.12111C10.148 7.47952 10.6733 5.83793 11.2105 4.20232C11.509 3.289 12.3626 2.82935 13.3058 3.03828C14.9952 3.40839 16.6905 3.77252 18.3798 4.14262C18.5947 4.19038 18.7439 4.15456 18.9051 3.99936C19.896 3.08604 20.9049 2.17869 21.9018 1.27134C22.2062 0.996746 22.4987 0.716184 22.8091 0.45353C23.5433 -0.173257 24.4686 -0.155349 25.1849 0.495316C26.4982 1.68323 27.8115 2.86517 29.1307 4.04114C29.2143 4.11278 29.3755 4.1665 29.4829 4.14262C31.2081 3.78446 32.9332 3.41436 34.6524 3.03828C35.6374 2.82338 36.4731 3.29497 36.7895 4.27395C37.3267 5.93941 37.8639 7.60488 38.3952 9.27631C38.4489 9.44942 38.5385 9.52703 38.7056 9.58075C40.3532 10.1061 41.9948 10.6732 43.6543 11.1686C44.5915 11.4492 45.1765 12.3565 44.9317 13.3892C44.5377 15.0428 44.2094 16.7142 43.8513 18.3797C43.8035 18.5945 43.8334 18.7557 43.9945 18.9288C45.1944 20.2421 46.3942 21.5554 47.5702 22.8866C48.1612 23.5551 48.1373 24.4684 47.5404 25.137C46.3584 26.4622 45.1645 27.7874 43.9706 29.1007C43.8334 29.2499 43.8035 29.3813 43.8393 29.5723C44.2094 31.2676 44.5676 32.9569 44.9317 34.6522C45.1526 35.679 44.7168 36.4729 43.7259 36.7953C42.0485 37.3445 40.3711 37.8757 38.6997 38.4249C38.5862 38.4607 38.4549 38.5921 38.4191 38.7055C37.8938 40.3053 37.3446 41.8991 36.873 43.5108C36.5566 44.5913 35.7567 45.23 34.4077 44.9077C32.79 44.5197 31.1603 44.1973 29.5366 43.8451C29.3695 43.8093 29.2561 43.8332 29.1188 43.9526C27.7995 45.1584 26.4683 46.3523 25.1372 47.5462C24.4686 48.1431 23.5553 48.167 22.8867 47.576C21.5615 46.406 20.2542 45.2121 18.9529 44.0182C18.7738 43.8571 18.6126 43.8033 18.3798 43.8571C16.6785 44.2331 14.9772 44.6032 13.276 44.9674C12.3328 45.1703 11.4971 44.6629 11.1986 43.7198C10.6673 42.0483 10.1241 40.3829 9.59284 38.7174C9.53911 38.5503 9.45554 38.4667 9.28243 38.413C7.60503 37.8817 5.92762 37.3445 4.25619 36.8012C3.45032 36.5326 3.00858 35.9357 3.00261 34.9209ZM41.2784 14.022C41.1471 13.9742 41.0397 13.9324 40.9263 13.8966C39.5234 13.4489 38.1206 13.0012 36.7118 12.5595C36.0791 12.3625 35.6612 11.9566 35.4583 11.3178C35.112 10.2135 34.7539 9.11514 34.4017 8.0108C34.2584 7.57503 34.1092 7.13926 33.9659 6.70947C32.4736 7.03181 31.017 7.31835 29.5724 7.67651C28.7069 7.89141 28.0025 7.7362 27.3638 7.10942C26.7549 6.51248 26.1042 5.95732 25.4715 5.38426C24.982 4.94252 24.4865 4.50079 23.997 4.05308C23.9433 4.09487 23.9075 4.11874 23.8776 4.14262C22.7972 5.1216 21.7048 6.09462 20.6303 7.08554C20.1527 7.52131 19.6513 7.87947 18.9648 7.77202C18.5649 7.70636 18.1709 7.60488 17.7769 7.52131C16.5293 7.25268 15.2817 6.98406 14.0281 6.71544C13.9983 6.7811 13.9744 6.82885 13.9565 6.88855C13.4909 8.33911 13.0193 9.78968 12.5716 11.2462C12.3686 11.8909 11.9746 12.3386 11.3359 12.5475C10.6793 12.7624 10.0167 12.9594 9.35406 13.1743C8.48253 13.4549 7.60503 13.7414 6.72752 14.028C7.03793 15.4964 7.31253 16.953 7.65875 18.3976C7.86171 19.2273 7.78411 19.9317 7.16926 20.5645C6.5365 21.2151 5.94553 21.8956 5.33665 22.5642C4.90685 23.0418 4.47706 23.5193 4.04129 24.0028C4.12486 24.0983 4.17859 24.164 4.23828 24.2297C5.25905 25.3639 6.28579 26.504 7.30656 27.6382C7.66472 28.0381 7.83783 28.4978 7.76023 29.035C7.71248 29.3574 7.6289 29.6738 7.56324 29.9961C7.28268 31.3213 7.00212 32.6465 6.71558 33.9837C6.84691 34.0314 6.96033 34.0792 7.08569 34.121C8.49447 34.5746 9.90922 35.0343 11.318 35.488C11.9209 35.679 12.3268 36.061 12.5238 36.6639C12.7984 37.5116 13.067 38.3592 13.3357 39.2069C13.5565 39.9053 13.7834 40.5978 13.9983 41.2843C14.046 41.2902 14.0699 41.3022 14.0878 41.2962C15.5264 40.9858 16.971 40.6813 18.4097 40.359C19.0842 40.2038 19.7349 40.156 20.296 40.6455C20.9586 41.2305 21.6093 41.8334 22.2599 42.4244C22.833 42.9438 23.406 43.4631 23.9791 43.9884C25.1969 42.89 26.3967 41.7976 27.5966 40.7172C28.0264 40.3292 28.5159 40.1441 29.1009 40.2695C29.7396 40.4068 30.3783 40.5381 31.023 40.6754C31.996 40.8843 32.975 41.0932 33.96 41.3022C33.9898 41.2425 34.0137 41.1947 34.0256 41.1529C34.5032 39.6665 34.9807 38.1802 35.4523 36.6878C35.6374 36.0968 36.0194 35.6969 36.6104 35.5059C37.4879 35.2193 38.3594 34.9448 39.2369 34.6642C39.9114 34.4433 40.586 34.2225 41.2725 34.0016C40.9561 32.5271 40.6576 31.0706 40.3233 29.626C40.1622 28.9276 40.1084 28.271 40.6218 27.6919C40.9501 27.3218 41.2904 26.9577 41.6187 26.5876C42.3888 25.734 43.1648 24.8803 43.9408 24.0267C43.893 23.967 43.8632 23.9193 43.8214 23.8715C42.7708 22.7194 41.7202 21.5673 40.6755 20.4033C40.2995 19.9854 40.1025 19.5079 40.2278 18.9288C40.592 17.2873 40.9322 15.6695 41.2784 14.022Z" fill="#9C1F45"/>
<path d="M22.236 26.3072C25.8595 22.8091 29.459 19.3409 33.0705 15.8667C33.8704 16.6905 34.6584 17.5023 35.4583 18.3321C31.0528 22.5763 26.6653 26.8086 22.2659 31.0529C19.4364 28.3905 16.6248 25.7401 13.7834 23.0658C14.5653 22.2361 15.3414 21.4182 16.1413 20.5706C18.1649 22.4808 20.1885 24.385 22.236 26.3072Z" fill="#9C1F45"/>
</g>
<defs>
<clipPath id="clip0_20_6013">
<rect width="48" height="48" fill="white"/>
</clipPath>
</defs>
</svg>
