<svg width="32" height="32" viewBox="0 0 32 32" fill="none" xmlns="http://www.w3.org/2000/svg">
<path d="M16.0001 28C22.6275 28 28.0001 22.6274 28.0001 16C28.0001 9.37258 22.6275 4 16.0001 4C9.37264 4 4.00006 9.37258 4.00006 16C4.00006 22.6274 9.37264 28 16.0001 28Z" stroke="#9C1F45" stroke-linecap="round" stroke-linejoin="round"/>
<path d="M16 23.5C16.5523 23.5 17 23.0523 17 22.5C17 21.9477 16.5523 21.5 16 21.5C15.4477 21.5 15 21.9477 15 22.5C15 23.0523 15.4477 23.5 16 23.5Z" fill="#9C1F45"/>
<path d="M16 18.0005V17.0005C16.6922 17.0005 17.3689 16.7952 17.9445 16.4106C18.5201 16.026 18.9687 15.4794 19.2336 14.8399C19.4985 14.2003 19.5678 13.4966 19.4327 12.8177C19.2977 12.1387 18.9644 11.5151 18.4749 11.0256C17.9854 10.5361 17.3617 10.2028 16.6828 10.0677C16.0039 9.93269 15.3001 10.002 14.6606 10.2669C14.0211 10.5318 13.4744 10.9804 13.0899 11.556C12.7053 12.1316 12.5 12.8083 12.5 13.5005" stroke="#9C1F45" stroke-linecap="round" stroke-linejoin="round"/>
</svg>
