<svg width="44" height="43" viewBox="0 0 44 43" fill="none" xmlns="http://www.w3.org/2000/svg">
<g clip-path="url(#clip0_20_5666)">
<path d="M43.9826 42.3999C35.7131 42.3999 27.461 42.3999 19.1395 42.3999C19.1741 41.6792 19.2088 40.9757 19.2608 40.2722C19.4862 37.1493 20.3183 34.1464 21.0812 31.1436C21.2719 30.4229 21.6879 29.891 22.4334 29.5993C24.2711 28.8614 26.0741 28.0035 27.9464 27.3514C30.7549 26.3562 33.5808 26.6308 36.3026 27.7289C37.8802 28.3638 39.4232 29.0673 40.9834 29.7365C41.5382 29.9768 41.8503 30.4572 42.0063 31.0063C42.9945 34.6955 43.9306 38.419 44 42.2798C44 42.297 44 42.3141 43.9826 42.3999Z" fill="#9C1F45"/>
<path d="M22.9362 24.2972C22.7801 24.2972 22.6414 24.3144 22.4854 24.3144C15.7242 24.3144 8.96296 24.3144 2.20173 24.3144C0.762805 24.3144 0 23.5594 0 22.1523C0 15.4946 0 8.83691 0 2.1792C0 0.754998 0.745469 0 2.1844 0C10.9393 0 19.6942 0 28.4492 0C29.7494 0 30.5122 0.754998 30.5296 2.05909C30.5296 3.27738 30.5296 4.49567 30.5296 5.6968C29.6627 5.90271 28.8132 6.10862 27.9291 6.33169C27.9291 5.1134 27.9291 3.87794 27.9291 2.64249C19.4862 2.64249 11.078 2.64249 2.65248 2.64249C2.65248 8.76827 2.65248 14.8941 2.65248 21.0713C8.80693 21.0713 14.9787 21.0713 21.1852 21.0713C21.1505 22.4955 21.6879 23.5765 23.0055 24.1943C22.9708 24.2286 22.9535 24.2629 22.9362 24.2972Z" fill="#9C1F45"/>
<path d="M31.5178 24.9835C31.1884 25.0007 30.7549 25.0178 30.3215 25.0693C29.8881 25.1208 29.5587 25.0007 29.2293 24.6918C28.2932 23.7824 27.6517 22.7014 27.253 21.4659C26.6982 19.8186 26.3861 18.1542 26.5942 16.4212C26.8542 14.2934 28.3278 12.8521 30.4949 12.5432C31.4137 12.4059 32.3152 12.4403 33.1994 12.6633C35.3491 13.2296 36.6147 14.9112 36.6147 17.1418C36.6147 18.9092 36.268 20.5908 35.5918 22.2381C35.1758 23.2505 34.569 24.1256 33.7195 24.8291C33.5461 24.9835 33.2687 25.0522 33.026 25.0522C32.5753 25.0693 32.0899 25.0178 31.5178 24.9835Z" fill="#9C1F45"/>
<path d="M19.0181 14.5851C18.6194 15.975 17.9952 17.2619 16.8857 18.2915C15.5855 19.5269 13.6438 19.5613 12.3089 18.3773C11.0953 17.2963 10.4365 15.8892 10.0031 14.3792C9.58705 12.8692 9.36167 11.3592 9.62172 9.79776C9.96845 7.6872 11.5807 6.29732 13.7478 6.10857C14.684 6.02277 15.6201 6.07425 16.5216 6.36596C18.29 6.9322 19.5035 8.4422 19.5555 10.2782C19.5729 11.222 19.4688 12.1486 19.3822 13.0923C19.3648 13.2296 19.2261 13.4012 19.0874 13.4526C17.9952 13.8988 16.8684 14.1562 15.6895 14.242C15.5161 14.2591 15.3254 14.139 15.1521 14.0704C14.9093 13.9674 14.6666 13.7958 14.4066 13.7615C14.0252 13.71 13.6264 13.7272 13.245 13.7615C12.6209 13.813 12.1875 14.242 12.1875 14.8082C12.1875 15.4088 12.6036 15.8034 13.2971 15.8206C13.6438 15.8377 13.9905 15.8034 14.3372 15.8206C14.7186 15.8377 14.996 15.7005 15.2387 15.4259C15.3254 15.323 15.4641 15.2372 15.5855 15.22C16.747 14.997 17.8739 14.791 19.0181 14.5851Z" fill="#9C1F45"/>
<path d="M14.5627 4.94191C11.7021 4.77032 9.32703 6.77792 8.47755 9.26599C8.39086 9.50621 8.39086 9.78076 8.42554 10.021C8.54689 11.1192 8.68558 12.2002 8.80694 13.2984C8.84161 13.5729 8.73759 13.7445 8.44287 13.7617C8.18283 13.7788 7.92278 13.796 7.66273 13.8474C7.21198 13.9332 6.95193 13.7102 6.79591 13.3327C6.32782 12.2173 6.2238 11.0677 6.53586 9.90087C6.58787 9.72928 6.7439 9.52337 6.88259 9.47189C7.17731 9.36894 7.26399 9.18019 7.35067 8.9228C8.26951 6.31463 10.0205 4.51293 12.7597 3.84373C16.5737 2.91714 20.301 4.97622 21.6359 8.6311C21.7746 8.99144 21.8093 9.42042 22.3294 9.50621C22.4161 9.52337 22.5028 9.69496 22.5374 9.79791C22.9188 11.0505 22.7975 12.286 22.2427 13.47C22.104 13.7617 21.8787 13.8818 21.5493 13.8474C19.9543 13.6759 20.301 13.8131 20.405 12.5262C20.4744 11.6511 20.6304 10.7931 20.7171 9.93519C20.7344 9.71212 20.7344 9.47189 20.6478 9.26599C19.7636 6.9152 18.134 5.37088 15.5682 4.94191C15.2388 4.89043 14.892 4.94191 14.5627 4.94191Z" fill="#9C1F45"/>
<path d="M31.5871 10.0036C34.2569 9.91782 37.3948 11.5994 38.643 14.9797C38.7817 15.3572 38.8164 15.8034 39.3538 15.9063C39.4579 15.9235 39.5619 16.1466 39.5965 16.2838C39.9086 17.4506 39.8219 18.6003 39.3365 19.7156C39.1285 20.2132 38.9204 20.3162 38.4003 20.2304C38.3483 20.2132 38.279 20.2132 38.227 20.1961C37.2041 20.1618 37.3081 20.0931 37.3948 19.1322C37.4815 18.2056 37.6375 17.2962 37.7069 16.3696C37.7242 16.0264 37.6722 15.6489 37.5335 15.3401C36.6493 13.2467 35.1411 11.7882 32.8353 11.3935C29.212 10.7758 26.5942 12.6976 25.5193 15.6661C25.398 16.0093 25.4846 16.4211 25.5193 16.7986C25.606 17.7423 25.71 18.6689 25.8314 19.6127C25.8834 20.0073 25.71 20.1618 25.3286 20.1789C25.2073 20.1789 25.1032 20.1789 24.9819 20.1961C24.0977 20.2819 23.9937 20.2132 23.699 19.3896C23.3349 18.3772 23.2829 17.3477 23.5603 16.3181C23.6123 16.1466 23.7163 15.9063 23.8377 15.872C24.2538 15.7691 24.3231 15.4602 24.4445 15.1342C25.398 12.5432 27.1836 10.8444 29.9228 10.2095C30.4602 10.0894 31.0323 10.0722 31.5871 10.0036Z" fill="#9C1F45"/>
<path d="M9.11902 25.6184C13.2451 25.6184 17.3018 25.6184 21.3933 25.6184C21.4106 25.7214 21.4453 25.8072 21.4453 25.893C21.4453 26.6994 21.4453 27.4887 21.4453 28.2952C21.4453 28.5526 21.3759 28.6556 21.0985 28.6556C17.1805 28.6556 13.2451 28.6556 9.32706 28.6556C9.25771 28.6556 9.18837 28.6384 9.10168 28.6212C9.11902 27.626 9.11902 26.648 9.11902 25.6184Z" fill="#9C1F45"/>
</g>
<defs>
<clipPath id="clip0_20_5666">
<rect width="44" height="42.4" fill="white"/>
</clipPath>
</defs>
</svg>
