<svg width="53" height="44" viewBox="0 0 53 44" fill="none" xmlns="http://www.w3.org/2000/svg">
<g clip-path="url(#clip0_20_5653)">
<path d="M52.3019 43.9999C47.9723 43.9999 43.6223 43.9999 39.2315 43.9999C39.3336 42.6758 38.9456 41.3518 39.8646 40.211C40.4364 39.5184 41.1308 39.111 42.0498 39.111C42.3562 39.111 42.54 39.1925 42.6829 39.4777C43.1731 40.4758 43.6836 41.474 44.235 42.574C44.5414 42.1258 44.8068 41.7388 45.0519 41.3518C45.0928 41.2907 45.0723 41.1888 45.0315 41.1277C45.0111 41.0462 44.9294 40.9851 44.8885 40.924C44.7047 40.4351 44.4188 39.9055 44.7864 39.4369C45.1745 38.9481 45.7871 39.111 46.3181 39.1925C46.7061 39.2536 46.9104 39.5592 46.8287 39.9462C46.747 40.3944 46.5836 40.8425 46.4202 41.4129C46.6244 41.6981 46.9104 42.1055 47.2575 42.5944C47.5435 42.0444 47.7681 41.5758 48.0132 41.0869C48.2378 40.6388 48.4625 40.211 48.6871 39.7629C49.0343 39.0703 49.2385 38.9888 49.9942 39.1721C51.0153 39.4166 51.6892 40.0684 52.0772 41.0258C52.1385 41.1684 52.1998 41.3314 52.261 41.474C52.3019 42.3092 52.3019 43.1647 52.3019 43.9999Z" fill="#9C1F45"/>
<path d="M26.1612 44C22.7914 44 19.4217 44 16.052 44C15.133 44 14.602 43.3889 14.745 42.4926C15.1535 39.9056 15.5823 37.3185 16.0112 34.7315C16.583 31.2278 17.1344 27.7037 17.7063 24.2C17.8084 23.5482 17.9105 22.8963 18.033 22.2445C18.1556 21.5926 18.6253 21.2056 19.2788 21.2056C23.8534 21.2056 28.428 21.2056 33.0027 21.2056C33.7583 21.2056 34.2076 21.5926 34.3301 22.3463C35.1266 27.2556 35.9027 32.1648 36.6991 37.0945C36.985 38.887 37.2914 40.6593 37.5773 42.4519C37.7407 43.4093 37.2097 44.0204 36.2294 44.0204C32.8597 44 29.5104 44 26.1612 44Z" fill="#9C1F45"/>
<path d="M26.2224 0C29.9802 0 33.7379 0 37.4956 0C38.5372 0 39.2315 0.672222 39.2315 1.71111C39.2315 7.08889 39.2315 12.4667 39.2315 17.8444C39.2315 18.9037 38.578 19.5556 37.516 19.5556C29.9393 19.5556 22.383 19.5556 14.8063 19.5556C13.7647 19.5556 13.0908 18.8833 13.0908 17.8241C13.0908 12.5481 13.0908 7.27222 13.0908 1.9963C13.0908 0.57037 13.6626 0 15.0922 0C18.7887 0 22.5055 0 26.2224 0ZM26.1816 1.62963C22.5668 1.62963 18.9725 1.62963 15.3577 1.62963C14.9084 1.62963 14.7246 1.77222 14.7246 2.24074C14.7246 7.25185 14.7246 12.263 14.7246 17.2537C14.7246 17.6815 14.8267 17.9259 15.3168 17.9259C22.526 17.9259 29.7351 17.9259 36.9646 17.9259C37.4139 17.9259 37.6182 17.7833 37.6182 17.3148C37.6182 12.3037 37.6182 7.29259 37.5977 2.30185C37.5977 1.71111 37.516 1.62963 36.9034 1.62963C33.3294 1.62963 29.7555 1.62963 26.1816 1.62963Z" fill="#9C1F45"/>
<path d="M44.7456 26.6038C45.0519 27.0315 45.3174 27.4186 45.6646 27.8871C46.1547 26.9093 46.604 26.013 47.0737 25.1167C47.4413 24.3834 47.6456 24.3019 48.4625 24.5056C49.647 24.8112 50.566 25.8501 50.6477 27.0926C50.6885 27.826 50.6477 28.5389 50.6477 29.313C46.2977 29.313 41.9681 29.313 37.5569 29.313C37.5977 28.4371 37.5569 27.5815 37.6794 26.726C37.8836 25.3612 39.0886 24.4445 40.4569 24.4445C40.7428 24.4445 40.8857 24.5464 41.0083 24.7908C41.4984 25.7889 42.0294 26.7871 42.54 27.7649C42.54 27.7852 42.5604 27.7852 42.6421 27.826C42.928 27.4186 43.2139 27.0112 43.4794 26.6241C42.928 25.7075 42.8667 24.9538 43.2752 24.6482C43.6428 24.363 44.7047 24.3834 45.0315 24.6889C45.3787 25.0149 45.2766 25.7686 44.7456 26.6038Z" fill="#9C1F45"/>
<path d="M6.65772 27.9073C7.0049 27.4184 7.29082 27.011 7.55631 26.624C7.02532 25.7684 6.92321 24.974 7.31124 24.6481C7.638 24.3629 8.74081 24.3833 9.06757 24.6684C9.43517 25.0147 9.35348 25.8092 8.8225 26.624C9.08799 27.011 9.3739 27.4184 9.68024 27.8666C9.78235 27.724 9.86404 27.6221 9.90489 27.5203C10.3746 26.624 10.8443 25.7073 11.2936 24.811C11.4161 24.5666 11.5387 24.4647 11.8246 24.4647C13.2542 24.4647 14.4795 25.4425 14.6633 26.9295C14.7654 27.7036 14.6837 28.5184 14.6837 29.3333C10.3542 29.3333 6.04505 29.3333 1.65422 29.3333C1.71549 28.0295 1.32746 26.6647 2.30774 25.5444C2.67534 25.137 3.14506 24.7907 3.65562 24.587C4.57463 24.2203 4.86054 24.3833 5.30984 25.2592C5.75913 26.1147 6.188 26.9703 6.65772 27.9073Z" fill="#9C1F45"/>
<path d="M7.1887 41.2906C7.45419 41.6777 7.74011 42.0851 8.04644 42.5332C8.14856 42.3906 8.20982 42.2888 8.27109 42.1869C8.74081 41.2906 9.1901 40.374 9.6394 39.4573C9.76193 39.2129 9.88446 39.111 10.1704 39.111C11.6204 39.0906 12.8253 40.1092 13.0091 41.6369C13.0908 42.411 13.0295 43.1851 13.0295 43.9999C8.69996 43.9999 4.39083 43.9999 -3.8743e-07 43.9999C0.0816894 42.6962 -0.32676 41.3314 0.67394 40.211C1.02112 39.824 1.49084 39.4777 1.96055 39.274C2.85914 38.8869 3.22675 39.0703 3.67604 39.9258C4.10491 40.7814 4.53378 41.6369 5.0035 42.574C5.33026 42.1055 5.61617 41.7184 5.90209 41.311C5.57533 40.6795 5.08519 40.0277 5.67744 39.3147C5.96335 38.9888 7.10701 39.0499 7.41335 39.3555C7.8218 39.6814 7.71969 40.4147 7.1887 41.2906Z" fill="#9C1F45"/>
<path d="M11.457 19.576C11.4774 21.3075 10.0274 22.8149 8.33236 22.8149C6.43307 22.8353 4.94223 21.4501 4.92181 19.6371C4.90139 17.7631 6.31054 16.3168 8.14856 16.2964C10.007 16.2964 11.4366 17.7019 11.457 19.576Z" fill="#9C1F45"/>
<path d="M44.1125 22.8149C42.254 22.8149 40.8449 21.3482 40.8653 19.4334C40.8653 17.7631 42.3766 16.2964 44.0512 16.2964C45.9709 16.2964 47.4005 17.7019 47.4005 19.576C47.3801 21.4093 45.9505 22.8149 44.1125 22.8149Z" fill="#9C1F45"/>
<path d="M45.7667 30.9629C47.6251 30.9832 49.0343 32.4092 49.0343 34.2832C49.0139 36.1166 47.5434 37.5017 45.6646 37.4814C43.8674 37.461 42.4787 35.974 42.4991 34.0592C42.5195 32.3888 44.0308 30.9425 45.7667 30.9629Z" fill="#9C1F45"/>
<path d="M6.53518 37.4814C4.75843 37.4814 3.28802 36.0351 3.26759 34.2629C3.26759 32.4092 4.69716 30.9629 6.55561 30.9629C8.33236 30.9629 9.80278 32.4092 9.80278 34.1407C9.8232 36.0351 8.43447 37.4814 6.53518 37.4814Z" fill="#9C1F45"/>
<path d="M24.6295 14.8703C24.9562 14.3814 25.2421 13.9943 25.5076 13.6073C24.9766 12.6499 24.895 11.9573 25.283 11.6314C25.6302 11.3462 26.7126 11.3462 27.0393 11.6314C27.4273 11.9777 27.3252 12.7925 26.7738 13.5666C27.0597 13.974 27.3457 14.3814 27.6928 14.8703C27.8154 14.6258 27.9175 14.4425 28.0196 14.2591C28.4485 13.424 28.8773 12.6091 29.2858 11.774C29.4083 11.5295 29.5308 11.4277 29.8168 11.4277C31.2872 11.4073 32.5329 12.4869 32.6759 13.9943C32.7576 14.748 32.6963 15.5017 32.6963 16.2962C28.3463 16.2962 24.0168 16.2962 19.6055 16.2962C19.6668 15.3591 19.626 14.4425 19.7689 13.5666C20.014 12.2832 21.2189 11.4277 22.5055 11.4277C22.7914 11.4277 22.9344 11.5091 23.0569 11.7536C23.5471 12.7517 24.0576 13.7499 24.6295 14.8703Z" fill="#9C1F45"/>
<path d="M29.4287 6.51851C29.4083 8.39258 27.9788 9.77777 26.059 9.77777C24.3231 9.77777 22.8936 8.29073 22.8936 6.51851C22.8936 4.68517 24.364 3.23888 26.202 3.25925C27.9788 3.27962 29.4287 4.72591 29.4287 6.51851Z" fill="#9C1F45"/>
</g>
<defs>
<clipPath id="clip0_20_5653">
<rect width="52.3019" height="44" fill="white"/>
</clipPath>
</defs>
</svg>
