<svg width="40" height="44" viewBox="0 0 40 44" fill="none" xmlns="http://www.w3.org/2000/svg">
<g clip-path="url(#clip0_20_5639)">
<path d="M37.7239 0C38.3221 0.210863 38.8991 0.435783 39.3072 0.976997C39.6872 1.48307 39.835 2.03834 39.842 2.64984C39.842 3.58467 39.842 4.52652 39.842 5.46134C39.842 13.3195 39.842 21.1776 39.849 29.0358C39.849 30.1182 39.4902 31.0038 38.498 31.5029C38.118 31.6927 37.6465 31.7911 37.2173 31.7911C34.0719 31.8121 30.9335 31.8051 27.7881 31.8051C27.6966 31.8051 27.6051 31.7911 27.4855 31.784C27.4855 30.8492 27.4855 29.9355 27.4855 28.9725C30.638 28.9725 33.7904 28.9725 36.9569 28.9725C36.9569 20.2569 36.9569 11.5693 36.9569 2.85367C36.7951 2.85367 36.6544 2.85367 36.5136 2.85367C30.2861 2.85367 24.0586 2.85367 17.8381 2.85367C17.3315 2.85367 17.3315 2.85367 17.3315 3.3738C17.3315 5.35591 17.3315 7.33099 17.3315 9.3131C17.3315 9.42556 17.3315 9.54505 17.3315 9.68562C16.3886 9.68562 15.4667 9.68562 14.4957 9.68562C14.4957 9.55911 14.4957 9.42556 14.4957 9.29201C14.4957 7.13419 14.5379 4.98339 14.4816 2.82556C14.4535 1.41981 15.2697 0.33738 16.4871 0.05623C16.5293 0.0492013 16.5715 0.0210863 16.6137 0C23.6505 0 30.6872 0 37.7239 0Z" fill="#9C1F45"/>
<path d="M0.00703683 27.9885C0.00703683 23.5745 0.00703683 19.1534 0.00703683 14.7393C0.00703683 13.8607 0.239249 13.0735 0.978107 12.5604C1.33698 12.3074 1.79437 12.1809 2.21657 12.0333C2.38545 11.977 2.58952 12.0051 2.77248 12.0051C6.83267 12.0051 10.8858 12.0192 14.946 11.9981C16.5082 11.9911 17.7678 12.5674 18.8373 13.6991C20.1603 15.0908 21.5465 16.4122 22.8905 17.7828C23.5731 18.4856 24.3542 19.1042 24.8045 20.0039C25.1141 20.6154 25.3393 21.255 25.3393 21.9508C25.3463 28.4524 25.3393 34.954 25.3534 41.4556C25.3534 42.8543 24.1853 44.007 22.7709 44.007C16.0367 44 9.3096 44.0071 2.57545 44C1.12588 44 0.0492573 42.9457 0.0140736 41.4837C-0.00703665 40.5911 0.00703683 39.7055 0.00703683 38.8128C0.00703683 35.2071 0.00703683 31.6013 0.00703683 27.9885ZM2.8921 41.1534C3.05394 41.1534 3.16653 41.1534 3.28616 41.1534C9.56293 41.1534 15.8327 41.1534 22.1094 41.1604C22.4331 41.1604 22.5246 41.069 22.5246 40.7457C22.5176 34.7221 22.5176 28.7055 22.5246 22.6818C22.5246 22.3796 22.4542 22.2741 22.1376 22.2812C20.4839 22.3093 18.8303 22.3233 17.1767 22.3304C15.8327 22.3374 15.0797 21.5853 15.0797 20.2499C15.0797 18.6543 15.0797 17.0658 15.0797 15.4703C15.0797 15.3368 15.0657 15.2032 15.0586 15.0626C10.9843 15.0626 6.9523 15.0626 2.89914 15.0626C2.8921 23.7502 2.8921 32.4237 2.8921 41.1534ZM17.9296 16.9885C17.9296 17.7828 17.9366 18.4786 17.9226 19.1674C17.9155 19.4275 18.0211 19.4767 18.2533 19.4697C18.8725 19.4486 19.4918 19.4556 20.111 19.4416C20.1954 19.4416 20.2799 19.4134 20.4206 19.3924C19.5903 18.5911 18.7951 17.8249 17.9296 16.9885Z" fill="#9C1F45"/>
<path d="M38.5191 34.1177C38.8146 34.1809 38.8709 34.4269 38.8991 34.694C39.0539 35.9944 38.7232 37.1752 38.0125 38.2576C36.8866 39.9586 35.1978 40.8442 33.326 41.4557C32.9601 41.5752 32.5871 41.6666 32.2071 41.772C32.2071 42.1234 32.2353 42.4608 32.1931 42.7982C32.172 42.988 32.0805 43.248 31.9468 43.3113C31.8131 43.3816 31.5246 43.3043 31.3909 43.1918C30.3987 42.3835 29.4276 41.54 28.4425 40.7107C28.3721 40.6474 28.3018 40.5912 28.2244 40.5349C27.5629 40.0359 27.5348 39.34 28.147 38.7777C28.6184 38.342 29.0969 37.9062 29.5684 37.4704C30.1595 36.9221 30.7576 36.3739 31.3487 35.8257C31.5246 35.664 31.7075 35.5515 31.9468 35.664C32.186 35.7765 32.2283 35.9873 32.2212 36.2263C32.2142 36.5988 32.2283 36.9784 32.2142 37.3509C32.2071 37.5758 32.2986 37.6883 32.5097 37.6813C33.136 37.6602 33.7763 37.6883 34.3885 37.5969C35.6411 37.4071 36.7529 36.9011 37.5128 35.8327C37.8999 35.3055 38.1813 34.7081 38.5191 34.1177Z" fill="#9C1F45"/>
<path d="M8.21187 7.55584C8.21187 7.4715 8.21187 7.39418 8.21187 7.30984C8.21187 6.58587 8.21187 6.55776 7.48005 6.5437C6.03752 6.50856 4.68647 6.78971 3.53948 7.73156C2.87099 8.2798 2.44175 8.99674 2.11806 9.78396C2.07584 9.88939 1.97732 9.96671 1.89992 10.0581C1.78733 9.95265 1.59734 9.86127 1.57623 9.74179C1.5129 9.36223 1.46364 8.96862 1.49882 8.58907C1.66771 6.94434 2.44175 5.62293 3.70836 4.58268C4.95386 3.56351 6.39639 2.94498 7.95855 2.59354C8.19076 2.54434 8.26113 2.43891 8.24706 2.20696C8.22595 1.92581 8.21891 1.64466 8.25409 1.36351C8.2752 1.20887 8.35965 0.998012 8.47927 0.934753C8.59889 0.871494 8.83814 0.920696 8.95073 1.01207C9.50663 1.44082 10.0344 1.89769 10.5762 2.35456C11.1532 2.84657 11.7302 3.34562 12.3073 3.84466C12.835 4.30856 12.8561 4.9552 12.3495 5.43316C11.2729 6.43827 10.1892 7.44338 9.10554 8.44849C8.92258 8.61718 8.71852 8.72262 8.4652 8.61016C8.22595 8.50472 8.21187 8.29386 8.21891 8.07597C8.21187 7.90728 8.21187 7.73156 8.21187 7.55584Z" fill="#9C1F45"/>
<path d="M27.2392 9.13747C25.1423 9.13747 23.0453 9.1445 20.9484 9.13747C19.8929 9.13044 19.2455 8.29402 19.5058 7.30296C19.6395 6.79689 20.111 6.39625 20.6739 6.31894C20.8147 6.29785 20.9554 6.29785 21.0961 6.29785C25.1845 6.29785 29.2799 6.29785 33.3682 6.29785C33.8538 6.29785 34.3041 6.3822 34.6419 6.76175C35.043 7.21862 35.1344 7.7528 34.8882 8.29402C34.6348 8.85632 34.1634 9.13747 33.5441 9.13747C31.4331 9.13747 29.3362 9.13747 27.2392 9.13747Z" fill="#9C1F45"/>
<path d="M20.5613 11.8574C20.7443 11.8434 20.9202 11.8223 21.0891 11.8223C25.1774 11.8223 29.2728 11.8223 33.3612 11.8223C33.903 11.8223 34.3815 11.9347 34.7263 12.3986C35.3385 13.228 34.8881 14.4229 33.8749 14.6267C33.6919 14.6619 33.5019 14.6759 33.319 14.6759C30.1102 14.6759 26.8944 14.6759 23.6857 14.683C23.4253 14.683 23.2423 14.6057 23.0664 14.4299C22.2502 13.5724 21.4198 12.729 20.5613 11.8574Z" fill="#9C1F45"/>
<path d="M27.4644 20.1725C27.4644 19.814 27.4433 19.5048 27.4714 19.2025C27.4925 18.9143 27.387 18.7105 27.1829 18.5278C26.7959 18.1763 26.423 17.8108 26.043 17.4524C26.0641 17.4242 26.0852 17.3891 26.1063 17.361C26.2189 17.3539 26.3315 17.3399 26.437 17.3399C28.7451 17.3399 31.0602 17.3329 33.3682 17.3469C33.6919 17.3469 34.0508 17.4172 34.3323 17.5718C34.9163 17.8952 35.1344 18.5278 34.9656 19.1393C34.7967 19.7367 34.2548 20.1514 33.6004 20.1584C31.8624 20.1655 30.1313 20.1655 28.3932 20.1655C28.0977 20.1725 27.8022 20.1725 27.4644 20.1725Z" fill="#9C1F45"/>
<path d="M27.4644 22.8716C27.6192 22.8646 27.7248 22.8505 27.8233 22.8505C29.6177 22.8505 31.412 22.8435 33.2064 22.8505C34.3745 22.8576 35.0782 23.8556 34.6278 24.8818C34.3745 25.4582 33.8749 25.7042 33.2697 25.7112C31.4261 25.7253 29.5895 25.7183 27.7459 25.7112C27.6474 25.7112 27.4785 25.5847 27.4714 25.5144C27.4574 24.6429 27.4644 23.7783 27.4644 22.8716Z" fill="#9C1F45"/>
<path d="M12.7013 29.1624C14.7631 29.1624 16.8248 29.1624 18.8866 29.1624C19.6255 29.1624 20.0969 29.4505 20.3432 30.048C20.6036 30.6806 20.4628 31.2991 19.9562 31.8122C19.6395 32.1285 19.2385 32.1847 18.8233 32.1847C17.0289 32.1847 15.2345 32.1847 13.4402 32.1847C11.1321 32.1847 8.82407 32.1847 6.51602 32.1847C5.47459 32.1847 4.76387 31.3764 4.93276 30.4064C5.05942 29.6684 5.64347 29.1694 6.41047 29.1694C8.50742 29.1624 10.6044 29.1624 12.7013 29.1624Z" fill="#9C1F45"/>
<path d="M12.6802 37.5195C10.6325 37.5195 8.5778 37.5195 6.53011 37.5195C5.61533 37.5195 5.03128 37.0486 4.92573 36.2684C4.82722 35.5234 5.36201 34.8135 6.1079 34.708C6.26975 34.687 6.43159 34.6729 6.60048 34.6729C10.6677 34.6729 14.7349 34.6659 18.8022 34.6799C19.0766 34.6799 19.3722 34.708 19.6255 34.8064C20.2236 35.0384 20.5614 35.671 20.4699 36.2755C20.3714 36.9502 19.9281 37.4001 19.2525 37.4914C19.1048 37.5125 18.95 37.5195 18.7951 37.5266C16.7545 37.5195 14.7138 37.5195 12.6802 37.5195Z" fill="#9C1F45"/>
<path d="M12.6591 26.6461C10.541 26.6461 8.41595 26.6531 6.29789 26.6391C5.41126 26.6321 4.77795 25.8378 4.9398 24.9733C5.05239 24.3618 5.56607 23.8908 6.19938 23.8276C6.28382 23.8206 6.36122 23.8206 6.44566 23.8206C10.6184 23.8206 14.7912 23.8206 18.964 23.8206C19.8084 23.8206 20.3643 24.2774 20.4699 25.0365C20.5895 25.8589 19.9703 26.625 19.1399 26.6321C16.9726 26.6531 14.8123 26.6461 12.6591 26.6461Z" fill="#9C1F45"/>
<path d="M8.34558 18.2889C8.99296 18.2889 9.6333 18.2749 10.2807 18.2959C10.8858 18.31 11.3714 18.556 11.6317 19.1394C11.878 19.6876 11.7795 20.1937 11.4136 20.6506C11.1181 21.009 10.7029 21.1496 10.2596 21.1567C8.98592 21.1707 7.70523 21.1707 6.43158 21.1567C5.68569 21.1496 5.19312 20.7771 4.98201 20.1445C4.8061 19.6103 4.9609 18.9637 5.44644 18.6404C5.74198 18.4506 6.129 18.3381 6.48788 18.31C7.10007 18.2467 7.72634 18.2889 8.34558 18.2889Z" fill="#9C1F45"/>
</g>
<defs>
<clipPath id="clip0_20_5639">
<rect width="39.8491" height="44" fill="white"/>
</clipPath>
</defs>
</svg>
