<svg width="234" height="79" viewBox="0 0 234 79" fill="none" xmlns="http://www.w3.org/2000/svg">
<g clip-path="url(#clip0_20_5487)">
<path d="M126.3 22.1001L126.2 22.2001L66.6 78.6001L135.3 45.8001L158 53.5001L126.3 22.1001Z" fill="#9C1F45"/>
<path d="M147.2 25.7H147.1L130.1 19.9L154 43.6L198.8 0L147.2 25.7Z" fill="#9C1F45"/>
<path d="M4.8 31.4001H4.2V27.0001L0.2 31.4001H0V25.7001H0.7V30.0001L4.7 25.6001H4.8V31.4001Z" fill="#1C1C1C"/>
<path d="M10.7 31.1001C10.3 31.4001 9.69998 31.5001 8.99998 31.5001C8.09998 31.5001 7.39998 31.2001 6.89998 30.7001C6.39998 30.2001 6.09998 29.5001 6.09998 28.6001C6.09998 27.7001 6.39998 27.0001 6.99998 26.5001C7.59998 25.9001 8.29998 25.6001 9.09998 25.6001C9.69998 25.6001 10.2 25.7001 10.5 25.9001V26.5001C10.1 26.3001 9.59998 26.2001 9.19998 26.2001C8.49998 26.2001 7.99998 26.4001 7.49998 26.8001C7.09998 27.2001 6.79998 27.8001 6.79998 28.5001C6.79998 29.2001 6.99998 29.8001 7.39998 30.2001C7.79998 30.6001 8.39998 30.8001 9.09998 30.8001C9.59998 30.8001 10.2 30.7001 10.7 30.4001V31.1001Z" fill="#1C1C1C"/>
<path d="M12.5 25.7001V28.4001L15.1 25.7001H15.9L13.3 28.4001L16.2 31.3001H15.3L12.5 28.4001V31.3001H11.8V25.6001H12.5V25.7001Z" fill="#1C1C1C"/>
<path d="M18.6 30.1002L16.4 25.7002H17.1L18.8 29.3002L20.4 25.7002H21.1L18.9 30.5002C18.6 31.2002 18.2 31.5002 17.6 31.5002C17.3 31.5002 16.9 31.4002 16.6 31.3002V30.7002C16.9 30.9002 17.2 30.9002 17.5 30.9002C17.9 30.9002 18.2 30.7002 18.3 30.2002L18.6 30.1002Z" fill="#1C1C1C"/>
<path d="M26.6 31.1001C26.2 31.4001 25.6 31.5001 24.9 31.5001C24 31.5001 23.3 31.2001 22.8 30.7001C22.3 30.2001 22 29.4001 22 28.6001C22 27.8001 22.3 27.0001 22.8 26.5001C23.4 25.9001 24.1 25.6001 24.9 25.6001C25.5 25.6001 26 25.7001 26.3 25.9001V26.5001C25.9 26.3001 25.4 26.2001 25 26.2001C24.3 26.2001 23.8 26.4001 23.3 26.8001C22.9 27.2001 22.6 27.8001 22.6 28.5001C22.6 29.2001 22.8 29.8001 23.2 30.2001C23.6 30.6001 24.2 30.8001 24.9 30.8001C25.4 30.8001 26 30.7001 26.5 30.4001V31.1001H26.6Z" fill="#1C1C1C"/>
<path d="M32 31.1001C31.6 31.4001 31 31.5001 30.3 31.5001C29.4 31.5001 28.7 31.2001 28.2 30.7001C27.7 30.2001 27.4 29.5001 27.4 28.6001C27.4 27.7001 27.7 27.0001 28.2 26.5001C28.8 25.9001 29.5 25.6001 30.3 25.6001C30.9 25.6001 31.4 25.7001 31.7 25.9001V26.5001C31.3 26.3001 30.8 26.2001 30.4 26.2001C29.7 26.2001 29.2 26.4001 28.7 26.8001C28.3 27.2001 28 27.8001 28 28.5001C28 29.2001 28.2 29.8001 28.6 30.2001C29 30.6001 29.6 30.8001 30.3 30.8001C30.8 30.8001 31.4 30.7001 31.9 30.4001V31.1001H32Z" fill="#1C1C1C"/>
<path d="M36.8 26.3002H35V31.4002H34.3V26.3002H32.5V25.7002H36.8V26.3002Z" fill="#1C1C1C"/>
<path d="M40.8 28.3002C41.5 28.5002 41.9001 29.1002 41.9001 29.7002C41.9001 30.2002 41.7001 30.6002 41.4001 30.9002C41.1001 31.2002 40.6 31.4002 40.1 31.4002H37.8V25.7002H39.9001C40.9001 25.7002 41.6 26.2002 41.6 27.1002C41.6 27.6002 41.3 28.1002 40.8 28.3002ZM38.5 26.3002V28.1002H39.9001C40.3001 28.1002 41 27.9002 41 27.2002C41 26.7002 40.6 26.3002 40 26.3002H38.5ZM39.9001 28.6002H38.5V30.8002H40C40.5 30.8002 40.8 30.7002 41 30.5002C41.2 30.3002 41.3 30.0002 41.3 29.7002C41.2 29.1002 40.7001 28.6002 39.9001 28.6002Z" fill="#1C1C1C"/>
<path d="M43.7 30.7001C43.2 30.2001 42.9 29.5001 42.9 28.6001C42.9 27.8001 43.2 27.1001 43.8 26.5001C44.4 25.9001 45.1 25.6001 45.9 25.6001C46.7 25.6001 47.4 25.9001 48 26.5001C48.6 27.1001 48.8 27.8001 48.8 28.6001C48.8 29.4001 48.5 30.1001 48 30.7001C47.5 31.3001 46.8 31.5001 45.9 31.5001C45 31.5001 44.3 31.2001 43.7 30.7001ZM44.3 30.2001C44.7 30.6001 45.3 30.9001 45.9 30.9001C46.6 30.9001 47.1 30.7001 47.5 30.2001C47.9 29.7001 48.1 29.2001 48.1 28.5001C48.1 27.8001 47.9 27.3001 47.5 26.8001C47.1 26.3001 46.5 26.1001 45.9 26.1001C45.2 26.1001 44.7 26.3001 44.3 26.8001C43.9 27.2001 43.7 27.8001 43.7 28.5001C43.7 29.2001 43.9 29.8001 44.3 30.2001Z" fill="#1C1C1C"/>
<path d="M56.7 31.1001C56.3 31.4001 55.7 31.5001 55 31.5001C54.1 31.5001 53.4 31.2001 52.9 30.7001C52.4 30.2001 52.1 29.5001 52.1 28.6001C52.1 27.7001 52.4 27.0001 52.9 26.5001C53.5 25.9001 54.2 25.6001 55 25.6001C55.6 25.6001 56.1 25.7001 56.4 25.9001V26.5001C56 26.3001 55.5 26.2001 55.1 26.2001C54.4 26.2001 53.9 26.4001 53.4 26.8001C53 27.2001 52.7 27.8001 52.7 28.5001C52.7 29.2001 52.9 29.8001 53.3 30.2001C53.7 30.6001 54.3 30.8001 55 30.8001C55.5 30.8001 56.1 30.7001 56.6 30.4001V31.1001H56.7Z" fill="#1C1C1C"/>
<path d="M58.3 30.7001C57.8 30.2001 57.5 29.5001 57.5 28.6001C57.5 27.8001 57.8 27.1001 58.4 26.5001C59 25.9001 59.7 25.6001 60.5 25.6001C61.3 25.6001 62 25.9001 62.6 26.5001C63.2 27.1001 63.4 27.8001 63.4 28.6001C63.4 29.4001 63.1 30.1001 62.6 30.7001C62.1 31.3001 61.4 31.5001 60.5 31.5001C59.6 31.5001 58.8 31.2001 58.3 30.7001ZM58.8 30.2001C59.2 30.6001 59.8 30.9001 60.4 30.9001C61.1 30.9001 61.6 30.7001 62 30.2001C62.4 29.7001 62.6 29.2001 62.6 28.5001C62.6 27.8001 62.4 27.3001 62 26.8001C61.6 26.3001 61 26.1001 60.4 26.1001C59.7 26.1001 59.2 26.3001 58.8 26.8001C58.4 27.2001 58.2 27.8001 58.2 28.5001C58.2 29.2001 58.4 29.8001 58.8 30.2001Z" fill="#1C1C1C"/>
<path d="M65.1 31.4001C64.8 31.3001 64.5 31.2001 64.3 31.1001V30.5001C64.8 30.8001 65.4 30.9001 66 30.9001C67.2 30.9001 67.9 30.4001 67.9 29.7001C67.9 29.0001 67.2 28.6001 66.3 28.6001H65.6V28.1001H66.3C67.2 28.1001 67.7 27.7001 67.7 27.2001C67.7 26.6001 67.1 26.3001 66.3 26.3001C66.1 26.3001 65.8 26.3001 65.4 26.4001C65.1 26.5001 64.8 26.6001 64.5 26.7001V26.0001C64.7 25.9001 65 25.8001 65.4 25.7001C65.7 25.6001 66 25.6001 66.3 25.6001C67.5 25.6001 68.4 26.1001 68.4 27.0001C68.4 27.5001 68.1 28.0001 67.4 28.2001C68.1 28.3001 68.5 28.9001 68.5 29.6001C68.5 30.1001 68.3 30.6001 67.9 30.9001C67.5 31.2001 66.9 31.4001 66.1 31.4001C65.7 31.5001 65.4 31.4001 65.1 31.4001Z" fill="#1C1C1C"/>
<path d="M74.9 25.7002V30.8002H75.7V32.7002H75V31.3002H69.9V32.7002H69.2V30.8002H69.9C70.5 30.2002 70.7 29.5002 70.9 28.2002L71.2 25.7002H74.9ZM71.7 26.3002L71.5 27.9002C71.3 29.3002 71.1 30.2002 70.6 30.8002H74.1V26.3002H71.7Z" fill="#1C1C1C"/>
<path d="M80.6 31.4002L80.1 30.1002H77.4L76.9 31.4002H76.2L78.7 25.7002H78.8L81.3 31.4002H80.6ZM78.8 27.0002L77.7 29.6002H80L78.8 27.0002Z" fill="#1C1C1C"/>
<path d="M86.7 31.4002H86V28.7002H83V31.4002H82.3V25.7002H83V28.1002H86V25.7002H86.7V31.4002Z" fill="#1C1C1C"/>
<path d="M93.1 31.4001H92.4V27.0001L88.4 31.4001H88.2V25.7001H88.9V30.0001L92.9 25.6001H93V31.4001H93.1Z" fill="#1C1C1C"/>
<path d="M94.1 31.4002L96 29.2002C95.5 29.1002 95.1 28.9002 94.8 28.6002C94.5 28.3002 94.4 27.9002 94.4 27.5002C94.4 26.9002 94.6 26.5002 95 26.2002C95.4 25.9002 95.9 25.7002 96.4 25.7002H98.4V31.4002H97.7V26.3002H96.5C95.7 26.3002 95.1 26.8002 95.1 27.6002C95.1 28.0002 95.3 28.3002 95.6 28.5002C95.9 28.8002 96.4 28.9002 97 28.9002V29.0002L95 31.4002H94.1Z" fill="#1C1C1C"/>
<path d="M2.9 41.2003H2.7L0.6 38.5003V42.5003H0V36.8003H0.1L2.8 40.4003L5.5 36.8003H5.6V42.5003H5V40.5003C5 39.6003 5 38.9003 5 38.5003L2.9 41.2003Z" fill="#1C1C1C"/>
<path d="M8.7 41.1002L6.5 36.7002H7.2L9 40.3002L10.6 36.7002H11.3L9.1 41.5002C8.8 42.2002 8.4 42.5002 7.8 42.5002C7.5 42.5002 7.1 42.4002 6.8 42.3002V41.7002C7.1 41.9002 7.4 41.9002 7.7 41.9002C8.1 41.9002 8.4 41.7002 8.5 41.2002L8.7 41.1002Z" fill="#1C1C1C"/>
<path d="M15.8 37.3002H13.8L13.5 40.4002C13.4 41.1002 13.3 41.6002 13.1 42.0002C12.9 42.4002 12.5 42.5002 12 42.6002L11.7 42.1002C12.1 42.0002 12.4 41.9002 12.5 41.6002C12.6 41.4002 12.7 41.0002 12.8 40.5002L13.2 36.7002H16.5V42.4002H15.8V37.3002Z" fill="#1C1C1C"/>
<path d="M18 42.4002V36.7002H18.7V38.9002H20.3C21 38.9002 21.5 39.1002 21.8 39.4002C22.2 39.7002 22.3 40.2002 22.3 40.7002C22.3 41.2002 22.1 41.6002 21.8 41.9002C21.5 42.2002 21 42.4002 20.5 42.4002H18ZM18.7 39.5002V41.8002H20.4C21.1 41.8002 21.6 41.4002 21.6 40.7002C21.6 40.0002 21 39.5002 20.3 39.5002H18.7Z" fill="#1C1C1C"/>
<path d="M27.4 37.3002H25.6V42.4002H24.9V37.3002H23V36.7002H27.3V37.3002H27.4Z" fill="#1C1C1C"/>
<path d="M33.0999 42.4001H32.4V38.0001L28.4 42.4001H28.2V36.7001H29V41.0001L33 36.6001H33.0999V42.4001Z" fill="#1C1C1C"/>
<path d="M37.5999 41.2003H37.5L35.4 38.5003V42.5003H34.7V36.8003H34.7999L37.5 40.4003L40.2 36.8003H40.2999V42.5003H39.5999V40.5003C39.5999 39.6003 39.5999 38.9003 39.5999 38.5003L37.5999 41.2003Z" fill="#1C1C1C"/>
<path d="M45.7 41.8002V42.4002H41.9V36.7002H45.5V37.3002H42.6V39.1002H45.3V39.7002H42.6V41.8002H45.7Z" fill="#1C1C1C"/>
<path d="M51.9 36.7002V41.8002H52.7V43.7002H52V42.3002H46.9V43.7002H46.2V41.8002H46.9C47.5 41.2002 47.7 40.5002 47.9 39.2002L48.2 36.7002H51.9ZM48.7 37.3002L48.5 38.9002C48.3 40.3002 48.1 41.2002 47.6 41.8002H51.1V37.3002H48.7Z" fill="#1C1C1C"/>
<path d="M58.6 42.4001H57.9V38.0001L53.9 42.4001H53.7V36.7001H54.4V41.0001L58.4 36.6001H58.5V42.4001H58.6Z" fill="#1C1C1C"/>
<path d="M65 42.4H64.3V38L60.3 42.4H60.1V36.7H60.8V41L64.8 36.6H65V42.4ZM61.5 35H61.9C61.9 35.5 62.2 35.8 62.6 35.8C63.1 35.8 63.3 35.5 63.3 35H63.7C63.7 35.7 63.3 36.2 62.5 36.2C61.9 36.2 61.5 35.7 61.5 35Z" fill="#1C1C1C"/>
<path d="M70.9 42.4002H70.2V39.7002H67.2V42.4002H66.5V36.7002H67.2V39.1002H70.2V36.7002H70.9V42.4002Z" fill="#1C1C1C"/>
<path d="M72.5 42.4002V36.7002H73.2V38.9002H74.8C75.5 38.9002 76 39.1002 76.3 39.4002C76.7 39.7002 76.8 40.1002 76.8 40.7002C76.8 41.2002 76.6 41.7002 76.3 42.0002C75.9 42.3002 75.5 42.4002 75 42.4002H72.5ZM73.2 39.5002V41.8002H74.4C74.6 41.8002 74.7 41.8002 74.8 41.8002C75 41.8002 75.4 41.7002 75.6 41.6002C75.9 41.4002 76.2 41.2002 76.2 40.6002C76.2 39.8002 75.6 39.4002 74.9 39.4002H73.2V39.5002ZM78.3 42.4002H77.6V36.7002H78.3V42.4002Z" fill="#1C1C1C"/>
<path d="M83.6 42.4003L81.8 39.6003L80 42.4003H79.3L81.3 39.5003L79.5 36.8003H80.2L81.9 39.4003L83.6 36.8003H84.4L82.6 39.5003L84.6 42.4003H83.6Z" fill="#1C1C1C"/>
<path d="M0 53.4002V47.7002H1.9C2.5 47.7002 3 47.9002 3.4 48.3002C3.8 48.7002 4 49.1002 4 49.6002C4 50.2002 3.8 50.6002 3.4 51.0002C3 51.4002 2.5 51.5002 2 51.5002H0.7V53.4002H0ZM0.7 48.3002V50.9002H1.9C2.4 50.9002 2.7 50.8002 2.9 50.5002C3.1 50.2002 3.3 49.9002 3.3 49.6002C3.3 49.2002 3.2 48.9002 2.9 48.7002C2.7 48.4002 2.3 48.3002 1.8 48.3002H0.7Z" fill="#1C1C1C"/>
<path d="M8.89998 52.8002V53.4002H5.09998V47.7002H8.69998V48.3002H5.79998V50.1002H8.49998V50.7002H5.79998V52.8002H8.89998Z" fill="#1C1C1C"/>
<path d="M16.8 47.7002V53.4002H10V47.7002H10.7V52.8002H13V47.7002H13.7V52.8002H16.1V47.7002H16.8Z" fill="#1C1C1C"/>
<path d="M22.2 52.8002V53.4002H18.4V47.7002H22V48.3002H19V50.1002H21.7V50.7002H19V52.8002H22.2Z" fill="#1C1C1C"/>
<path d="M27.7001 53.4002H27V50.7002H24V53.4002H23.3V47.7002H24V50.1002H27V47.7002H27.7001V53.4002Z" fill="#1C1C1C"/>
<path d="M34 53.4001H33.3V49.0001L29.3 53.4001H29.1V47.7001H29.8V52.0001L33.8 47.6001H34V53.4001Z" fill="#1C1C1C"/>
<path d="M40.4 53.4H39.7V49L35.7 53.4H35.5V47.7H36.2V52L40.2 47.6H40.3V53.4H40.4ZM36.9 46H37.3C37.3 46.5 37.6 46.8 38 46.8C38.5 46.8 38.7 46.5 38.7 46H39.1C39.1 46.7 38.7 47.2 37.9 47.2C37.4 47.2 36.9 46.7 36.9 46Z" fill="#1C1C1C"/>
<path d="M172.1 43.3999L175.4 51.1999H172.1H168.8L172.1 43.3999Z" fill="#9C1F45"/>
<path d="M172.3 34.8999H171.9L163.8 53.4999H166L172 39.2999H172.1L178.1 53.4999H180.4L172.3 34.8999Z" fill="#1C1C1C"/>
<path d="M185.8 53.6001H185.4L177.7 35.1001H180L185.6 48.9001H185.7L191.2 35.1001H193.4L185.8 53.6001Z" fill="#1C1C1C"/>
<path d="M198.2 53.5001H196V35.1001H198.2V53.5001Z" fill="#1C1C1C"/>
<path d="M204.7 53.4999H202.5V34.8999H203L215.8 48.8999H215.9V35.0999H218.1V53.5999H217.6L204.8 39.5999H204.7V53.4999Z" fill="#1C1C1C"/>
<path d="M233.8 37.0001H228V53.5001H225.7V37.0001H219.8V35.1001H233.8V37.0001Z" fill="#1C1C1C"/>
</g>
<defs>
<clipPath id="clip0_20_5487">
<rect width="233.8" height="78.6" fill="white"/>
</clipPath>
</defs>
</svg>
